<svg width="270" height="122" viewBox="0 0 270 122" fill="none" xmlns="http://www.w3.org/2000/svg">
<g clip-path="url(#clip0_1_332)">
<path d="M9.18359 112.906L9.67578 109.672H6.54688V107.562C6.54688 106.648 6.96875 105.805 8.375 105.805H9.81641V103.027C9.81641 103.027 8.51562 102.781 7.28516 102.781C4.71875 102.781 3.03125 104.363 3.03125 107.176V109.672H0.148438V112.906H3.03125V120.781H6.54688V112.906H9.18359Z" fill="white"/>
</g>
<g clip-path="url(#clip1_1_332)">
<path d="M91.6406 119.531V109.02H88.3711V119.531H91.6406ZM89.9883 107.613C91.043 107.613 91.8867 106.734 91.8867 105.68C91.8867 104.66 91.043 103.816 89.9883 103.816C88.9688 103.816 88.125 104.66 88.125 105.68C88.125 106.734 88.9688 107.613 89.9883 107.613ZM103.84 119.531H103.875V113.766C103.875 110.953 103.242 108.773 99.9375 108.773C98.3555 108.773 97.3008 109.652 96.8438 110.461H96.8086V109.02H93.6797V119.531H96.9492V114.328C96.9492 112.957 97.1953 111.656 98.8828 111.656C100.57 111.656 100.606 113.203 100.606 114.434V119.531H103.84Z" fill="white"/>
</g>
<path d="M142.5 107.139C140.125 107.139 138.232 109.068 138.232 111.406C138.232 113.781 140.125 115.674 142.5 115.674C144.838 115.674 146.768 113.781 146.768 111.406C146.768 109.068 144.838 107.139 142.5 107.139ZM142.5 114.189C140.979 114.189 139.717 112.965 139.717 111.406C139.717 109.885 140.941 108.66 142.5 108.66C144.021 108.66 145.246 109.885 145.246 111.406C145.246 112.965 144.021 114.189 142.5 114.189ZM147.918 106.99C147.918 106.434 147.473 105.988 146.916 105.988C146.359 105.988 145.914 106.434 145.914 106.99C145.914 107.547 146.359 107.992 146.916 107.992C147.473 107.992 147.918 107.547 147.918 106.99ZM150.738 107.992C150.664 106.656 150.367 105.469 149.402 104.504C148.438 103.539 147.25 103.242 145.914 103.168C144.541 103.094 140.422 103.094 139.049 103.168C137.713 103.242 136.562 103.539 135.561 104.504C134.596 105.469 134.299 106.656 134.225 107.992C134.15 109.365 134.15 113.484 134.225 114.857C134.299 116.193 134.596 117.344 135.561 118.346C136.562 119.311 137.713 119.607 139.049 119.682C140.422 119.756 144.541 119.756 145.914 119.682C147.25 119.607 148.438 119.311 149.402 118.346C150.367 117.344 150.664 116.193 150.738 114.857C150.812 113.484 150.812 109.365 150.738 107.992ZM148.957 116.305C148.697 117.047 148.104 117.604 147.398 117.9C146.285 118.346 143.688 118.234 142.5 118.234C141.275 118.234 138.678 118.346 137.602 117.9C136.859 117.604 136.303 117.047 136.006 116.305C135.561 115.229 135.672 112.631 135.672 111.406C135.672 110.219 135.561 107.621 136.006 106.508C136.303 105.803 136.859 105.246 137.602 104.949C138.678 104.504 141.275 104.615 142.5 104.615C143.688 104.615 146.285 104.504 147.398 104.949C148.104 105.209 148.66 105.803 148.957 106.508C149.402 107.621 149.291 110.219 149.291 111.406C149.291 112.631 149.402 115.229 148.957 116.305Z" fill="white"/>
<g clip-path="url(#clip2_1_332)">
<path d="M56.1367 108.125C56.8398 107.598 57.4727 106.965 57.9648 106.227C57.332 106.508 56.5938 106.719 55.8555 106.789C56.6289 106.332 57.1914 105.629 57.4727 104.75C56.7695 105.172 55.9609 105.488 55.1523 105.664C54.4492 104.926 53.5 104.504 52.4453 104.504C50.4062 104.504 48.7539 106.156 48.7539 108.195C48.7539 108.477 48.7891 108.758 48.8594 109.039C45.8008 108.863 43.0586 107.387 41.2305 105.172C40.9141 105.699 40.7383 106.332 40.7383 107.035C40.7383 108.301 41.3711 109.426 42.3906 110.094C41.793 110.059 41.1953 109.918 40.7031 109.637V109.672C40.7031 111.465 41.9688 112.941 43.6562 113.293C43.375 113.363 43.0234 113.434 42.707 113.434C42.4609 113.434 42.25 113.398 42.0039 113.363C42.4609 114.84 43.832 115.895 45.4492 115.93C44.1836 116.914 42.6016 117.512 40.8789 117.512C40.5625 117.512 40.2812 117.477 40 117.441C41.6172 118.496 43.5508 119.094 45.6602 119.094C52.4453 119.094 56.1367 113.504 56.1367 108.617C56.1367 108.441 56.1367 108.301 56.1367 108.125Z" fill="white"/>
</g>
<defs>
<clipPath id="clip0_1_332">
<rect width="10" height="19" fill="white" transform="translate(0 102.531)"/>
</clipPath>
<clipPath id="clip1_1_332">
<rect width="16" height="16" fill="white" transform="translate(88 103.531)"/>
</clipPath>
<clipPath id="clip2_1_332">
<rect width="18" height="16" fill="white" transform="translate(40 103.531)"/>
</clipPath>
</defs>
</svg>
