<svg width="645" height="231" viewBox="0 0 645 231" fill="none" xmlns="http://www.w3.org/2000/svg">
<path d="M0 40.0469C0 29.0012 8.95431 20.0469 20 20.0469H75C86.0457 20.0469 95 29.0012 95 40.0469V95.0469C95 106.093 86.0457 115.047 75 115.047H20C8.9543 115.047 0 106.093 0 95.0469V40.0469Z" fill="#FED8FF"/>
<g clip-path="url(#clip0_1_34)">
<path d="M58.9032 47.0469H35.1554C33.6497 47.0469 32.2716 47.8924 31.5895 49.2347L27.0971 58.0747C26.4227 59.4018 26.541 60.9937 27.4043 62.2065L44.0041 85.5278C45.5869 87.7515 48.8828 87.7718 50.4929 85.5678L67.4438 62.3638C68.3879 61.0715 68.4708 59.3409 67.6546 57.9643L62.3439 49.0069C61.6235 47.7919 60.3157 47.0469 58.9032 47.0469Z" stroke="#E074E3" stroke-width="2"/>
<path d="M27 60.0469H68" stroke="#E074E3" stroke-width="2"/>
<path d="M37.085 60.5948L45.3346 84.3864C45.964 86.2015 48.5414 86.1717 49.1285 84.3425L56.7516 60.5948M47.2974 47.0469L58.5293 48.4954C59.7976 48.6589 60.5887 49.9544 60.1549 51.1574L56.7516 60.5948L47.2974 47.0469ZM47.2974 47.0469L35.4546 48.5106C34.1911 48.6668 33.3932 49.9479 33.8103 51.1507L37.085 60.5948L47.2974 47.0469ZM47.2974 47.0469L37.085 60.5948L47.2974 47.0469ZM47.2974 47.0469L56.7516 60.5948L47.2974 47.0469Z" stroke="#E074E3" stroke-width="2"/>
</g>
<path d="M117.93 58.0469V36.6309H120.42V58.0469H117.93ZM133.545 41.6992C135.449 41.6992 136.89 42.168 137.866 43.1055C138.843 44.0332 139.331 45.5273 139.331 47.5879V58.0469H136.929V47.749C136.929 46.4111 136.621 45.4102 136.006 44.7461C135.4 44.082 134.468 43.75 133.208 43.75C131.431 43.75 130.181 44.2529 129.458 45.2588C128.735 46.2646 128.374 47.7246 128.374 49.6387V58.0469H125.942V41.9922H127.905L128.271 44.3066H128.403C128.745 43.7402 129.18 43.2666 129.707 42.8857C130.234 42.4951 130.825 42.2021 131.479 42.0068C132.134 41.8018 132.822 41.6992 133.545 41.6992ZM150.771 58.3398C149.326 58.3398 148.052 58.042 146.948 57.4463C145.845 56.8506 144.985 55.9424 144.37 54.7217C143.755 53.501 143.447 51.9629 143.447 50.1074C143.447 48.1641 143.77 46.5771 144.414 45.3467C145.068 44.1064 145.967 43.1885 147.109 42.5928C148.252 41.9971 149.551 41.6992 151.006 41.6992C151.807 41.6992 152.578 41.7822 153.32 41.9482C154.072 42.1045 154.688 42.3047 155.166 42.5488L154.434 44.585C153.945 44.3896 153.379 44.2139 152.734 44.0576C152.1 43.9014 151.504 43.8232 150.947 43.8232C149.834 43.8232 148.906 44.0625 148.164 44.541C147.432 45.0195 146.88 45.7227 146.509 46.6504C146.147 47.5781 145.967 48.7207 145.967 50.0781C145.967 51.377 146.143 52.4854 146.494 53.4033C146.855 54.3213 147.388 55.0244 148.091 55.5127C148.804 55.9912 149.692 56.2305 150.757 56.2305C151.606 56.2305 152.373 56.1426 153.057 55.9668C153.74 55.7812 154.36 55.5664 154.917 55.3223V57.4902C154.38 57.7637 153.779 57.9736 153.115 58.1201C152.461 58.2666 151.68 58.3398 150.771 58.3398ZM166.021 41.6992C166.343 41.6992 166.68 41.7188 167.031 41.7578C167.383 41.7871 167.695 41.8311 167.969 41.8896L167.661 44.1455C167.397 44.0771 167.104 44.0234 166.782 43.9844C166.46 43.9453 166.157 43.9258 165.874 43.9258C165.229 43.9258 164.619 44.0576 164.043 44.3213C163.477 44.5752 162.979 44.9463 162.549 45.4346C162.119 45.9131 161.782 46.4941 161.538 47.1777C161.294 47.8516 161.172 48.6035 161.172 49.4336V58.0469H158.726V41.9922H160.747L161.011 44.9512H161.113C161.445 44.3555 161.846 43.8135 162.314 43.3252C162.783 42.8271 163.325 42.4316 163.94 42.1387C164.565 41.8457 165.259 41.6992 166.021 41.6992ZM177.183 41.6992C178.55 41.6992 179.722 42.002 180.698 42.6074C181.675 43.2129 182.422 44.0625 182.939 45.1562C183.457 46.2402 183.716 47.5098 183.716 48.9648V50.4736H172.627C172.656 52.3584 173.125 53.7939 174.033 54.7803C174.941 55.7666 176.221 56.2598 177.871 56.2598C178.887 56.2598 179.785 56.167 180.566 55.9814C181.348 55.7959 182.158 55.5225 182.998 55.1611V57.2998C182.188 57.6611 181.382 57.9248 180.581 58.0908C179.79 58.2568 178.853 58.3398 177.769 58.3398C176.226 58.3398 174.878 58.0273 173.726 57.4023C172.583 56.7676 171.694 55.8398 171.06 54.6191C170.425 53.3984 170.107 51.9043 170.107 50.1367C170.107 48.4082 170.396 46.9141 170.972 45.6543C171.558 44.3848 172.378 43.4082 173.433 42.7246C174.497 42.041 175.747 41.6992 177.183 41.6992ZM177.153 43.6914C175.854 43.6914 174.819 44.1162 174.048 44.9658C173.276 45.8154 172.817 47.002 172.671 48.5254H181.167C181.157 47.5684 181.006 46.7285 180.713 46.0059C180.43 45.2734 179.995 44.707 179.409 44.3066C178.823 43.8965 178.071 43.6914 177.153 43.6914ZM193.853 41.7285C195.767 41.7285 197.188 42.1582 198.115 43.0176C199.043 43.877 199.507 45.249 199.507 47.1338V58.0469H197.734L197.266 55.6738H197.148C196.699 56.2598 196.23 56.7529 195.742 57.1533C195.254 57.5439 194.688 57.8418 194.043 58.0469C193.408 58.2422 192.627 58.3398 191.699 58.3398C190.723 58.3398 189.854 58.1689 189.092 57.8271C188.34 57.4854 187.744 56.9678 187.305 56.2744C186.875 55.5811 186.66 54.7021 186.66 53.6377C186.66 52.0361 187.295 50.8057 188.564 49.9463C189.834 49.0869 191.768 48.6182 194.365 48.54L197.134 48.4229V47.4414C197.134 46.0547 196.836 45.083 196.24 44.5264C195.645 43.9697 194.805 43.6914 193.721 43.6914C192.881 43.6914 192.08 43.8135 191.318 44.0576C190.557 44.3018 189.834 44.5898 189.15 44.9219L188.403 43.0762C189.126 42.7051 189.956 42.3877 190.894 42.124C191.831 41.8604 192.817 41.7285 193.853 41.7285ZM197.104 50.1367L194.658 50.2393C192.656 50.3174 191.245 50.6445 190.425 51.2207C189.604 51.7969 189.194 52.6123 189.194 53.667C189.194 54.585 189.473 55.2637 190.029 55.7031C190.586 56.1426 191.323 56.3623 192.241 56.3623C193.667 56.3623 194.834 55.9668 195.742 55.1758C196.65 54.3848 197.104 53.1982 197.104 51.6162V50.1367ZM214.902 53.6523C214.902 54.6777 214.644 55.542 214.126 56.2451C213.618 56.9385 212.886 57.4609 211.929 57.8125C210.981 58.1641 209.849 58.3398 208.53 58.3398C207.407 58.3398 206.436 58.252 205.615 58.0762C204.795 57.9004 204.077 57.6514 203.462 57.3291V55.0879C204.116 55.4102 204.897 55.7031 205.806 55.9668C206.714 56.2305 207.642 56.3623 208.589 56.3623C209.976 56.3623 210.981 56.1377 211.606 55.6885C212.231 55.2393 212.544 54.6289 212.544 53.8574C212.544 53.418 212.417 53.0322 212.163 52.7002C211.919 52.3584 211.504 52.0312 210.918 51.7188C210.332 51.3965 209.521 51.0449 208.486 50.6641C207.461 50.2734 206.572 49.8877 205.82 49.5068C205.078 49.1162 204.502 48.6426 204.092 48.0859C203.691 47.5293 203.491 46.8066 203.491 45.918C203.491 44.5605 204.038 43.5205 205.132 42.7979C206.235 42.0654 207.681 41.6992 209.468 41.6992C210.435 41.6992 211.338 41.7969 212.178 41.9922C213.027 42.1777 213.818 42.4316 214.551 42.7539L213.73 44.7021C213.066 44.4189 212.358 44.1797 211.606 43.9844C210.854 43.7891 210.088 43.6914 209.307 43.6914C208.184 43.6914 207.319 43.877 206.714 44.248C206.118 44.6191 205.82 45.127 205.82 45.7715C205.82 46.2695 205.957 46.6797 206.23 47.002C206.514 47.3242 206.963 47.627 207.578 47.9102C208.193 48.1934 209.004 48.5254 210.01 48.9062C211.016 49.2773 211.885 49.6631 212.617 50.0635C213.35 50.4541 213.911 50.9326 214.302 51.499C214.702 52.0557 214.902 52.7734 214.902 53.6523ZM224.995 41.6992C226.362 41.6992 227.534 42.002 228.511 42.6074C229.487 43.2129 230.234 44.0625 230.752 45.1562C231.27 46.2402 231.528 47.5098 231.528 48.9648V50.4736H220.439C220.469 52.3584 220.938 53.7939 221.846 54.7803C222.754 55.7666 224.033 56.2598 225.684 56.2598C226.699 56.2598 227.598 56.167 228.379 55.9814C229.16 55.7959 229.971 55.5225 230.811 55.1611V57.2998C230 57.6611 229.194 57.9248 228.394 58.0908C227.603 58.2568 226.665 58.3398 225.581 58.3398C224.038 58.3398 222.69 58.0273 221.538 57.4023C220.396 56.7676 219.507 55.8398 218.872 54.6191C218.237 53.3984 217.92 51.9043 217.92 50.1367C217.92 48.4082 218.208 46.9141 218.784 45.6543C219.37 44.3848 220.19 43.4082 221.245 42.7246C222.31 42.041 223.56 41.6992 224.995 41.6992ZM224.966 43.6914C223.667 43.6914 222.632 44.1162 221.86 44.9658C221.089 45.8154 220.63 47.002 220.483 48.5254H228.979C228.97 47.5684 228.818 46.7285 228.525 46.0059C228.242 45.2734 227.808 44.707 227.222 44.3066C226.636 43.8965 225.884 43.6914 224.966 43.6914ZM268.149 36.6309L262.422 58.0469H259.917L255.669 43.6328C255.542 43.2227 255.42 42.8125 255.303 42.4023C255.195 41.9824 255.093 41.5869 254.995 41.2158C254.897 40.835 254.814 40.5029 254.746 40.2197C254.688 39.9268 254.644 39.707 254.614 39.5605C254.595 39.707 254.556 39.9219 254.497 40.2051C254.448 40.4883 254.38 40.8154 254.292 41.1865C254.214 41.5576 254.116 41.9531 253.999 42.373C253.892 42.793 253.774 43.2178 253.647 43.6475L249.517 58.0469H247.012L241.328 36.6309H243.921L247.363 50.0635C247.48 50.5127 247.588 50.957 247.686 51.3965C247.793 51.8262 247.886 52.2461 247.964 52.6562C248.052 53.0664 248.13 53.4668 248.198 53.8574C248.267 54.248 248.33 54.6289 248.389 55C248.438 54.6191 248.501 54.2236 248.579 53.8135C248.657 53.3936 248.74 52.9688 248.828 52.5391C248.926 52.1094 249.028 51.6748 249.136 51.2354C249.253 50.7959 249.375 50.3564 249.502 49.917L253.354 36.6309H255.918L259.932 50.0195C260.068 50.4785 260.195 50.9326 260.312 51.3818C260.43 51.8311 260.532 52.2705 260.62 52.7002C260.718 53.1201 260.801 53.5254 260.869 53.916C260.947 54.2969 261.016 54.6582 261.074 55C261.143 54.5215 261.226 54.0186 261.323 53.4912C261.421 52.9639 261.533 52.4121 261.66 51.8359C261.797 51.2598 261.943 50.6641 262.1 50.0488L265.542 36.6309H268.149ZM285.01 49.9902C285.01 51.3086 284.839 52.4854 284.497 53.5205C284.155 54.5557 283.662 55.4297 283.018 56.1426C282.373 56.8555 281.592 57.4023 280.674 57.7832C279.766 58.1543 278.735 58.3398 277.583 58.3398C276.509 58.3398 275.522 58.1543 274.624 57.7832C273.735 57.4023 272.964 56.8555 272.31 56.1426C271.665 55.4297 271.162 54.5557 270.801 53.5205C270.449 52.4854 270.273 51.3086 270.273 49.9902C270.273 48.2324 270.571 46.7383 271.167 45.5078C271.763 44.2676 272.612 43.3252 273.716 42.6807C274.829 42.0264 276.152 41.6992 277.686 41.6992C279.15 41.6992 280.43 42.0264 281.523 42.6807C282.627 43.335 283.481 44.2822 284.087 45.5225C284.702 46.7529 285.01 48.2422 285.01 49.9902ZM272.793 49.9902C272.793 51.2793 272.964 52.3975 273.306 53.3447C273.647 54.292 274.175 55.0244 274.888 55.542C275.601 56.0596 276.519 56.3184 277.642 56.3184C278.755 56.3184 279.668 56.0596 280.381 55.542C281.104 55.0244 281.636 54.292 281.978 53.3447C282.319 52.3975 282.49 51.2793 282.49 49.9902C282.49 48.7109 282.319 47.6074 281.978 46.6797C281.636 45.7422 281.108 45.0195 280.396 44.5117C279.683 44.0039 278.76 43.75 277.627 43.75C275.957 43.75 274.731 44.3018 273.95 45.4053C273.179 46.5088 272.793 48.0371 272.793 49.9902ZM296.509 41.6992C296.831 41.6992 297.168 41.7188 297.52 41.7578C297.871 41.7871 298.184 41.8311 298.457 41.8896L298.149 44.1455C297.886 44.0771 297.593 44.0234 297.271 43.9844C296.948 43.9453 296.646 43.9258 296.362 43.9258C295.718 43.9258 295.107 44.0576 294.531 44.3213C293.965 44.5752 293.467 44.9463 293.037 45.4346C292.607 45.9131 292.271 46.4941 292.026 47.1777C291.782 47.8516 291.66 48.6035 291.66 49.4336V58.0469H289.214V41.9922H291.235L291.499 44.9512H291.602C291.934 44.3555 292.334 43.8135 292.803 43.3252C293.271 42.8271 293.813 42.4316 294.429 42.1387C295.054 41.8457 295.747 41.6992 296.509 41.6992ZM303.906 35.2539V47.0898C303.906 47.4805 303.892 47.959 303.862 48.5254C303.833 49.082 303.809 49.5752 303.789 50.0049H303.892C304.097 49.751 304.395 49.375 304.785 48.877C305.186 48.3789 305.522 47.9785 305.796 47.6758L311.128 41.9922H313.984L307.524 48.8477L314.453 58.0469H311.523L305.854 50.4443L303.906 52.2314V58.0469H301.489V35.2539H303.906ZM324.399 43.8965H320.4V58.0469H317.969V43.8965H315.127V42.7246L317.969 41.9189V40.8496C317.969 39.502 318.169 38.4082 318.569 37.5684C318.97 36.7188 319.551 36.0938 320.312 35.6934C321.074 35.293 322.002 35.0928 323.096 35.0928C323.711 35.0928 324.272 35.1465 324.78 35.2539C325.298 35.3613 325.752 35.4834 326.143 35.6201L325.513 37.5391C325.181 37.4316 324.805 37.334 324.385 37.2461C323.975 37.1484 323.555 37.0996 323.125 37.0996C322.197 37.0996 321.509 37.4023 321.06 38.0078C320.62 38.6035 320.4 39.541 320.4 40.8203V41.9922H324.399V43.8965ZM329.79 58.0469H327.344V35.2539H329.79V58.0469ZM348.76 49.9902C348.76 51.3086 348.589 52.4854 348.247 53.5205C347.905 54.5557 347.412 55.4297 346.768 56.1426C346.123 56.8555 345.342 57.4023 344.424 57.7832C343.516 58.1543 342.485 58.3398 341.333 58.3398C340.259 58.3398 339.272 58.1543 338.374 57.7832C337.485 57.4023 336.714 56.8555 336.06 56.1426C335.415 55.4297 334.912 54.5557 334.551 53.5205C334.199 52.4854 334.023 51.3086 334.023 49.9902C334.023 48.2324 334.321 46.7383 334.917 45.5078C335.513 44.2676 336.362 43.3252 337.466 42.6807C338.579 42.0264 339.902 41.6992 341.436 41.6992C342.9 41.6992 344.18 42.0264 345.273 42.6807C346.377 43.335 347.231 44.2822 347.837 45.5225C348.452 46.7529 348.76 48.2422 348.76 49.9902ZM336.543 49.9902C336.543 51.2793 336.714 52.3975 337.056 53.3447C337.397 54.292 337.925 55.0244 338.638 55.542C339.351 56.0596 340.269 56.3184 341.392 56.3184C342.505 56.3184 343.418 56.0596 344.131 55.542C344.854 55.0244 345.386 54.292 345.728 53.3447C346.069 52.3975 346.24 51.2793 346.24 49.9902C346.24 48.7109 346.069 47.6074 345.728 46.6797C345.386 45.7422 344.858 45.0195 344.146 44.5117C343.433 44.0039 342.51 43.75 341.377 43.75C339.707 43.75 338.481 44.3018 337.7 45.4053C336.929 46.5088 336.543 48.0371 336.543 49.9902ZM366.03 58.0176L363.174 48.6719C363.047 48.2715 362.925 47.8809 362.808 47.5C362.7 47.1094 362.598 46.7383 362.5 46.3867C362.412 46.0254 362.329 45.6934 362.251 45.3906C362.183 45.0781 362.124 44.8096 362.075 44.585H361.973C361.934 44.8096 361.88 45.0781 361.812 45.3906C361.743 45.6934 361.66 46.0254 361.562 46.3867C361.475 46.748 361.377 47.1289 361.27 47.5293C361.162 47.9199 361.04 48.3154 360.903 48.7158L357.915 58.0176H355.176L350.752 41.9629H353.271L355.586 50.8252C355.742 51.4111 355.889 51.9922 356.025 52.5684C356.172 53.1348 356.294 53.6719 356.392 54.1797C356.499 54.6777 356.577 55.1123 356.626 55.4834H356.743C356.802 55.2393 356.865 54.9463 356.934 54.6045C357.012 54.2627 357.095 53.9014 357.183 53.5205C357.28 53.1299 357.383 52.7441 357.49 52.3633C357.598 51.9727 357.705 51.6064 357.812 51.2646L360.771 41.9629H363.394L366.25 51.25C366.396 51.7188 366.538 52.207 366.675 52.7148C366.821 53.2227 366.953 53.7158 367.07 54.1943C367.188 54.6631 367.271 55.083 367.319 55.4541H367.437C367.476 55.1221 367.549 54.7119 367.656 54.2236C367.764 53.7354 367.886 53.1982 368.022 52.6123C368.169 52.0264 368.32 51.4307 368.477 50.8252L370.82 41.9629H373.296L368.857 58.0176H366.03Z" fill="#1B2534"/>
<path d="M125.908 91.0469L124.15 86.5156H118.428L116.68 91.0469H115L120.586 76.7109H122.08L127.627 91.0469H125.908ZM123.652 85.041L121.982 80.5391C121.943 80.4219 121.878 80.2298 121.787 79.9629C121.702 79.696 121.615 79.4193 121.523 79.1328C121.432 78.8464 121.357 78.6152 121.299 78.4395C121.234 78.7064 121.162 78.9733 121.084 79.2402C121.012 79.5007 120.941 79.7448 120.869 79.9727C120.798 80.194 120.736 80.3828 120.684 80.5391L118.984 85.041H123.652ZM130.986 75.8516V79.6504C130.986 80.0866 130.973 80.5098 130.947 80.9199C130.928 81.3301 130.911 81.6491 130.898 81.877H130.986C131.279 81.3952 131.702 80.9883 132.256 80.6562C132.809 80.3242 133.516 80.1582 134.375 80.1582C135.716 80.1582 136.784 80.6237 137.578 81.5547C138.379 82.4792 138.779 83.8561 138.779 85.6855C138.779 86.89 138.597 87.9056 138.232 88.7324C137.868 89.5592 137.354 90.1842 136.689 90.6074C136.025 91.0306 135.241 91.2422 134.336 91.2422C133.49 91.2422 132.793 91.0859 132.246 90.7734C131.706 90.4544 131.289 90.0671 130.996 89.6113H130.869L130.537 91.0469H129.365V75.8516H130.986ZM134.111 81.5156C133.337 81.5156 132.721 81.6686 132.266 81.9746C131.81 82.2741 131.481 82.7298 131.279 83.3418C131.084 83.9473 130.986 84.7155 130.986 85.6465V85.7344C130.986 87.082 131.211 88.1139 131.66 88.8301C132.109 89.5397 132.926 89.8945 134.111 89.8945C135.107 89.8945 135.853 89.5299 136.348 88.8008C136.849 88.0716 137.1 87.0299 137.1 85.6758C137.1 84.2956 136.852 83.2572 136.357 82.5605C135.869 81.8639 135.12 81.5156 134.111 81.5156ZM143.232 80.3438V91.0469H141.611V80.3438H143.232ZM142.441 76.3398C142.708 76.3398 142.936 76.4277 143.125 76.6035C143.32 76.7728 143.418 77.0397 143.418 77.4043C143.418 77.7624 143.32 78.0293 143.125 78.2051C142.936 78.3809 142.708 78.4688 142.441 78.4688C142.161 78.4688 141.927 78.3809 141.738 78.2051C141.556 78.0293 141.465 77.7624 141.465 77.4043C141.465 77.0397 141.556 76.7728 141.738 76.6035C141.927 76.4277 142.161 76.3398 142.441 76.3398ZM148.301 91.0469H146.67V75.8516H148.301V91.0469ZM153.35 80.3438V91.0469H151.729V80.3438H153.35ZM152.559 76.3398C152.826 76.3398 153.053 76.4277 153.242 76.6035C153.438 76.7728 153.535 77.0397 153.535 77.4043C153.535 77.7624 153.438 78.0293 153.242 78.2051C153.053 78.3809 152.826 78.4688 152.559 78.4688C152.279 78.4688 152.044 78.3809 151.855 78.2051C151.673 78.0293 151.582 77.7624 151.582 77.4043C151.582 77.0397 151.673 76.7728 151.855 76.6035C152.044 76.4277 152.279 76.3398 152.559 76.3398ZM160.244 89.9141C160.511 89.9141 160.785 89.8913 161.064 89.8457C161.344 89.8001 161.572 89.7448 161.748 89.6797V90.9395C161.559 91.0241 161.296 91.0957 160.957 91.1543C160.625 91.2129 160.299 91.2422 159.98 91.2422C159.414 91.2422 158.9 91.1445 158.438 90.9492C157.975 90.7474 157.604 90.4089 157.324 89.9336C157.051 89.4583 156.914 88.8008 156.914 87.9609V81.6133H155.391V80.8223L156.924 80.1875L157.568 77.8633H158.545V80.3438H161.68V81.6133H158.545V87.9121C158.545 88.5827 158.698 89.084 159.004 89.416C159.316 89.748 159.73 89.9141 160.244 89.9141ZM165.537 80.3438V91.0469H163.916V80.3438H165.537ZM164.746 76.3398C165.013 76.3398 165.241 76.4277 165.43 76.6035C165.625 76.7728 165.723 77.0397 165.723 77.4043C165.723 77.7624 165.625 78.0293 165.43 78.2051C165.241 78.3809 165.013 78.4688 164.746 78.4688C164.466 78.4688 164.232 78.3809 164.043 78.2051C163.861 78.0293 163.77 77.7624 163.77 77.4043C163.77 77.0397 163.861 76.7728 164.043 76.6035C164.232 76.4277 164.466 76.3398 164.746 76.3398ZM173.096 80.1484C174.007 80.1484 174.788 80.3503 175.439 80.7539C176.09 81.1576 176.589 81.724 176.934 82.4531C177.279 83.1758 177.451 84.0221 177.451 84.9922V85.998H170.059C170.078 87.2546 170.391 88.2116 170.996 88.8691C171.602 89.5267 172.454 89.8555 173.555 89.8555C174.232 89.8555 174.831 89.7936 175.352 89.6699C175.872 89.5462 176.413 89.3639 176.973 89.123V90.5488C176.432 90.7897 175.895 90.9655 175.361 91.0762C174.834 91.1868 174.209 91.2422 173.486 91.2422C172.458 91.2422 171.559 91.0339 170.791 90.6172C170.029 90.194 169.437 89.5755 169.014 88.7617C168.59 87.9479 168.379 86.9518 168.379 85.7734C168.379 84.6211 168.571 83.625 168.955 82.7852C169.346 81.9388 169.893 81.2878 170.596 80.832C171.305 80.3763 172.139 80.1484 173.096 80.1484ZM173.076 81.4766C172.21 81.4766 171.52 81.7598 171.006 82.3262C170.492 82.8926 170.186 83.6836 170.088 84.6992H175.752C175.745 84.0612 175.645 83.5013 175.449 83.0195C175.26 82.5312 174.971 82.1536 174.58 81.8867C174.189 81.6133 173.688 81.4766 173.076 81.4766ZM187.129 88.1172C187.129 88.8008 186.956 89.377 186.611 89.8457C186.273 90.3079 185.785 90.6562 185.146 90.8906C184.515 91.125 183.76 91.2422 182.881 91.2422C182.132 91.2422 181.484 91.1836 180.938 91.0664C180.391 90.9492 179.912 90.7832 179.502 90.5684V89.0742C179.938 89.2891 180.459 89.4844 181.064 89.6602C181.67 89.8359 182.288 89.9238 182.92 89.9238C183.844 89.9238 184.515 89.7741 184.932 89.4746C185.348 89.1751 185.557 88.7682 185.557 88.2539C185.557 87.9609 185.472 87.7038 185.303 87.4824C185.14 87.2546 184.863 87.0365 184.473 86.8281C184.082 86.6133 183.542 86.3789 182.852 86.125C182.168 85.8646 181.576 85.6074 181.074 85.3535C180.579 85.0931 180.195 84.7773 179.922 84.4062C179.655 84.0352 179.521 83.5534 179.521 82.9609C179.521 82.056 179.886 81.3626 180.615 80.8809C181.351 80.3926 182.314 80.1484 183.506 80.1484C184.15 80.1484 184.753 80.2135 185.312 80.3438C185.879 80.4674 186.406 80.6367 186.895 80.8516L186.348 82.1504C185.905 81.9616 185.433 81.8021 184.932 81.6719C184.43 81.5417 183.919 81.4766 183.398 81.4766C182.65 81.4766 182.074 81.6003 181.67 81.8477C181.273 82.0951 181.074 82.4336 181.074 82.8633C181.074 83.1953 181.165 83.4688 181.348 83.6836C181.536 83.8984 181.836 84.1003 182.246 84.2891C182.656 84.4779 183.197 84.6992 183.867 84.9531C184.538 85.2005 185.117 85.4577 185.605 85.7246C186.094 85.985 186.468 86.304 186.729 86.6816C186.995 87.0527 187.129 87.5312 187.129 88.1172ZM198.389 89.9141C198.656 89.9141 198.929 89.8913 199.209 89.8457C199.489 89.8001 199.717 89.7448 199.893 89.6797V90.9395C199.704 91.0241 199.44 91.0957 199.102 91.1543C198.77 91.2129 198.444 91.2422 198.125 91.2422C197.559 91.2422 197.044 91.1445 196.582 90.9492C196.12 90.7474 195.749 90.4089 195.469 89.9336C195.195 89.4583 195.059 88.8008 195.059 87.9609V81.6133H193.535V80.8223L195.068 80.1875L195.713 77.8633H196.689V80.3438H199.824V81.6133H196.689V87.9121C196.689 88.5827 196.842 89.084 197.148 89.416C197.461 89.748 197.874 89.9141 198.389 89.9141ZM206.064 80.168C207.34 80.168 208.288 80.4544 208.906 81.0273C209.525 81.6003 209.834 82.515 209.834 83.7715V91.0469H208.652L208.34 89.4648H208.262C207.962 89.8555 207.65 90.1842 207.324 90.4512C206.999 90.7116 206.621 90.9102 206.191 91.0469C205.768 91.1771 205.247 91.2422 204.629 91.2422C203.978 91.2422 203.398 91.1283 202.891 90.9004C202.389 90.6725 201.992 90.3275 201.699 89.8652C201.413 89.403 201.27 88.8171 201.27 88.1074C201.27 87.0397 201.693 86.2194 202.539 85.6465C203.385 85.0736 204.674 84.7611 206.406 84.709L208.252 84.6309V83.9766C208.252 83.0521 208.053 82.4043 207.656 82.0332C207.259 81.6621 206.699 81.4766 205.977 81.4766C205.417 81.4766 204.883 81.5579 204.375 81.7207C203.867 81.8835 203.385 82.0755 202.93 82.2969L202.432 81.0664C202.913 80.819 203.467 80.6074 204.092 80.4316C204.717 80.2559 205.374 80.168 206.064 80.168ZM208.232 85.7734L206.602 85.8418C205.267 85.8939 204.326 86.112 203.779 86.4961C203.232 86.8802 202.959 87.4238 202.959 88.127C202.959 88.7389 203.145 89.1914 203.516 89.4844C203.887 89.7773 204.378 89.9238 204.99 89.9238C205.941 89.9238 206.719 89.6602 207.324 89.1328C207.93 88.6055 208.232 87.8145 208.232 86.7598V85.7734ZM214.785 75.8516V83.7422C214.785 84.0026 214.775 84.3216 214.756 84.6992C214.736 85.0703 214.72 85.3991 214.707 85.6855H214.775C214.912 85.5163 215.111 85.2656 215.371 84.9336C215.638 84.6016 215.863 84.3346 216.045 84.1328L219.6 80.3438H221.504L217.197 84.9141L221.816 91.0469H219.863L216.084 85.9785L214.785 87.1699V91.0469H213.174V75.8516H214.785ZM227.803 80.1484C228.714 80.1484 229.495 80.3503 230.146 80.7539C230.798 81.1576 231.296 81.724 231.641 82.4531C231.986 83.1758 232.158 84.0221 232.158 84.9922V85.998H224.766C224.785 87.2546 225.098 88.2116 225.703 88.8691C226.309 89.5267 227.161 89.8555 228.262 89.8555C228.939 89.8555 229.538 89.7936 230.059 89.6699C230.579 89.5462 231.12 89.3639 231.68 89.123V90.5488C231.139 90.7897 230.602 90.9655 230.068 91.0762C229.541 91.1868 228.916 91.2422 228.193 91.2422C227.165 91.2422 226.266 91.0339 225.498 90.6172C224.736 90.194 224.144 89.5755 223.721 88.7617C223.298 87.9479 223.086 86.9518 223.086 85.7734C223.086 84.6211 223.278 83.625 223.662 82.7852C224.053 81.9388 224.6 81.2878 225.303 80.832C226.012 80.3763 226.846 80.1484 227.803 80.1484ZM227.783 81.4766C226.917 81.4766 226.227 81.7598 225.713 82.3262C225.199 82.8926 224.893 83.6836 224.795 84.6992H230.459C230.452 84.0612 230.352 83.5013 230.156 83.0195C229.967 82.5312 229.678 82.1536 229.287 81.8867C228.896 81.6133 228.395 81.4766 227.783 81.4766ZM239.98 80.1484C241.25 80.1484 242.21 80.4609 242.861 81.0859C243.512 81.7044 243.838 82.7005 243.838 84.0742V91.0469H242.236V84.1816C242.236 83.2897 242.031 82.6224 241.621 82.1797C241.217 81.737 240.596 81.5156 239.756 81.5156C238.571 81.5156 237.738 81.8509 237.256 82.5215C236.774 83.1921 236.533 84.1654 236.533 85.4414V91.0469H234.912V80.3438H236.221L236.465 81.8867H236.553C236.781 81.5091 237.07 81.1934 237.422 80.9395C237.773 80.679 238.167 80.4837 238.604 80.3535C239.04 80.2168 239.499 80.1484 239.98 80.1484ZM261.084 91.0273L259.18 84.7969C259.095 84.5299 259.014 84.2695 258.936 84.0156C258.864 83.7552 258.796 83.5078 258.73 83.2734C258.672 83.0326 258.617 82.8112 258.564 82.6094C258.519 82.401 258.48 82.222 258.447 82.0723H258.379C258.353 82.222 258.317 82.401 258.271 82.6094C258.226 82.8112 258.171 83.0326 258.105 83.2734C258.047 83.5143 257.982 83.7682 257.91 84.0352C257.839 84.2956 257.757 84.5592 257.666 84.8262L255.674 91.0273H253.848L250.898 80.3242H252.578L254.121 86.2324C254.225 86.623 254.323 87.0104 254.414 87.3945C254.512 87.7721 254.593 88.1302 254.658 88.4688C254.73 88.8008 254.782 89.0905 254.814 89.3379H254.893C254.932 89.1751 254.974 88.9798 255.02 88.752C255.072 88.5241 255.127 88.2832 255.186 88.0293C255.251 87.7689 255.319 87.5117 255.391 87.2578C255.462 86.9974 255.534 86.7533 255.605 86.5254L257.578 80.3242H259.326L261.23 86.5156C261.328 86.8281 261.423 87.1536 261.514 87.4922C261.611 87.8307 261.699 88.1595 261.777 88.4785C261.855 88.791 261.911 89.071 261.943 89.3184H262.021C262.048 89.097 262.096 88.8236 262.168 88.498C262.24 88.1725 262.321 87.8145 262.412 87.4238C262.51 87.0332 262.611 86.6361 262.715 86.2324L264.277 80.3242H265.928L262.969 91.0273H261.084ZM269.502 80.3438V91.0469H267.881V80.3438H269.502ZM268.711 76.3398C268.978 76.3398 269.206 76.4277 269.395 76.6035C269.59 76.7728 269.688 77.0397 269.688 77.4043C269.688 77.7624 269.59 78.0293 269.395 78.2051C269.206 78.3809 268.978 78.4688 268.711 78.4688C268.431 78.4688 268.197 78.3809 268.008 78.2051C267.826 78.0293 267.734 77.7624 267.734 77.4043C267.734 77.0397 267.826 76.7728 268.008 76.6035C268.197 76.4277 268.431 76.3398 268.711 76.3398ZM276.396 89.9141C276.663 89.9141 276.937 89.8913 277.217 89.8457C277.497 89.8001 277.725 89.7448 277.9 89.6797V90.9395C277.712 91.0241 277.448 91.0957 277.109 91.1543C276.777 91.2129 276.452 91.2422 276.133 91.2422C275.566 91.2422 275.052 91.1445 274.59 90.9492C274.128 90.7474 273.757 90.4089 273.477 89.9336C273.203 89.4583 273.066 88.8008 273.066 87.9609V81.6133H271.543V80.8223L273.076 80.1875L273.721 77.8633H274.697V80.3438H277.832V81.6133H274.697V87.9121C274.697 88.5827 274.85 89.084 275.156 89.416C275.469 89.748 275.882 89.9141 276.396 89.9141ZM281.689 75.8516V80.3926C281.689 80.653 281.683 80.9167 281.67 81.1836C281.657 81.444 281.634 81.6849 281.602 81.9062H281.709C281.93 81.5286 282.21 81.2129 282.549 80.959C282.894 80.6986 283.285 80.5033 283.721 80.373C284.157 80.2363 284.619 80.168 285.107 80.168C285.967 80.168 286.683 80.3047 287.256 80.5781C287.835 80.8516 288.268 81.2747 288.555 81.8477C288.848 82.4206 288.994 83.1628 288.994 84.0742V91.0469H287.393V84.1816C287.393 83.2897 287.188 82.6224 286.777 82.1797C286.374 81.737 285.752 81.5156 284.912 81.5156C284.118 81.5156 283.483 81.6686 283.008 81.9746C282.539 82.2741 282.201 82.7168 281.992 83.3027C281.79 83.8887 281.689 84.6048 281.689 85.4512V91.0469H280.068V75.8516H281.689ZM293.955 80.3438V91.0469H292.334V80.3438H293.955ZM293.164 76.3398C293.431 76.3398 293.659 76.4277 293.848 76.6035C294.043 76.7728 294.141 77.0397 294.141 77.4043C294.141 77.7624 294.043 78.0293 293.848 78.2051C293.659 78.3809 293.431 78.4688 293.164 78.4688C292.884 78.4688 292.65 78.3809 292.461 78.2051C292.279 78.0293 292.188 77.7624 292.188 77.4043C292.188 77.0397 292.279 76.7728 292.461 76.6035C292.65 76.4277 292.884 76.3398 293.164 76.3398ZM302.461 80.1484C303.73 80.1484 304.691 80.4609 305.342 81.0859C305.993 81.7044 306.318 82.7005 306.318 84.0742V91.0469H304.717V84.1816C304.717 83.2897 304.512 82.6224 304.102 82.1797C303.698 81.737 303.076 81.5156 302.236 81.5156C301.051 81.5156 300.218 81.8509 299.736 82.5215C299.255 83.1921 299.014 84.1654 299.014 85.4414V91.0469H297.393V80.3438H298.701L298.945 81.8867H299.033C299.261 81.5091 299.551 81.1934 299.902 80.9395C300.254 80.679 300.648 80.4837 301.084 80.3535C301.52 80.2168 301.979 80.1484 302.461 80.1484ZM318.857 80.168C320.133 80.168 321.081 80.4544 321.699 81.0273C322.318 81.6003 322.627 82.515 322.627 83.7715V91.0469H321.445L321.133 89.4648H321.055C320.755 89.8555 320.443 90.1842 320.117 90.4512C319.792 90.7116 319.414 90.9102 318.984 91.0469C318.561 91.1771 318.04 91.2422 317.422 91.2422C316.771 91.2422 316.191 91.1283 315.684 90.9004C315.182 90.6725 314.785 90.3275 314.492 89.8652C314.206 89.403 314.062 88.8171 314.062 88.1074C314.062 87.0397 314.486 86.2194 315.332 85.6465C316.178 85.0736 317.467 84.7611 319.199 84.709L321.045 84.6309V83.9766C321.045 83.0521 320.846 82.4043 320.449 82.0332C320.052 81.6621 319.492 81.4766 318.77 81.4766C318.21 81.4766 317.676 81.5579 317.168 81.7207C316.66 81.8835 316.178 82.0755 315.723 82.2969L315.225 81.0664C315.706 80.819 316.26 80.6074 316.885 80.4316C317.51 80.2559 318.167 80.168 318.857 80.168ZM321.025 85.7734L319.395 85.8418C318.06 85.8939 317.119 86.112 316.572 86.4961C316.025 86.8802 315.752 87.4238 315.752 88.127C315.752 88.7389 315.938 89.1914 316.309 89.4844C316.68 89.7773 317.171 89.9238 317.783 89.9238C318.734 89.9238 319.512 89.6602 320.117 89.1328C320.723 88.6055 321.025 87.8145 321.025 86.7598V85.7734ZM342.783 80.1484C343.962 80.1484 344.85 80.4577 345.449 81.0762C346.048 81.6882 346.348 82.6745 346.348 84.0352V91.0469H344.746V84.1133C344.746 83.2474 344.557 82.5996 344.18 82.1699C343.809 81.7337 343.255 81.5156 342.52 81.5156C341.484 81.5156 340.732 81.8151 340.264 82.4141C339.795 83.013 339.561 83.8952 339.561 85.0605V91.0469H337.949V84.1133C337.949 83.5339 337.865 83.0521 337.695 82.668C337.533 82.2839 337.285 81.9974 336.953 81.8086C336.628 81.6133 336.214 81.5156 335.713 81.5156C335.003 81.5156 334.434 81.6621 334.004 81.9551C333.574 82.248 333.262 82.6842 333.066 83.2637C332.878 83.8366 332.783 84.543 332.783 85.3828V91.0469H331.162V80.3438H332.471L332.715 81.8574H332.803C333.018 81.4863 333.288 81.1738 333.613 80.9199C333.939 80.666 334.303 80.474 334.707 80.3438C335.111 80.2135 335.54 80.1484 335.996 80.1484C336.81 80.1484 337.49 80.3014 338.037 80.6074C338.59 80.9069 338.991 81.3659 339.238 81.9844H339.326C339.678 81.3659 340.16 80.9069 340.771 80.6074C341.383 80.3014 342.054 80.1484 342.783 80.1484ZM358.516 80.3438V91.0469H357.188L356.953 89.543H356.865C356.644 89.9141 356.357 90.2266 356.006 90.4805C355.654 90.7344 355.257 90.9232 354.814 91.0469C354.378 91.1771 353.913 91.2422 353.418 91.2422C352.572 91.2422 351.862 91.1055 351.289 90.832C350.716 90.5586 350.283 90.1354 349.99 89.5625C349.704 88.9896 349.561 88.2539 349.561 87.3555V80.3438H351.201V87.2383C351.201 88.1302 351.403 88.7975 351.807 89.2402C352.21 89.6764 352.826 89.8945 353.652 89.8945C354.447 89.8945 355.078 89.7448 355.547 89.4453C356.022 89.1458 356.364 88.7064 356.572 88.127C356.781 87.541 356.885 86.8249 356.885 85.9785V80.3438H358.516ZM363.574 91.0469H361.943V75.8516H363.574V91.0469ZM370.459 89.9141C370.726 89.9141 370.999 89.8913 371.279 89.8457C371.559 89.8001 371.787 89.7448 371.963 89.6797V90.9395C371.774 91.0241 371.51 91.0957 371.172 91.1543C370.84 91.2129 370.514 91.2422 370.195 91.2422C369.629 91.2422 369.115 91.1445 368.652 90.9492C368.19 90.7474 367.819 90.4089 367.539 89.9336C367.266 89.4583 367.129 88.8008 367.129 87.9609V81.6133H365.605V80.8223L367.139 80.1875L367.783 77.8633H368.76V80.3438H371.895V81.6133H368.76V87.9121C368.76 88.5827 368.913 89.084 369.219 89.416C369.531 89.748 369.945 89.9141 370.459 89.9141ZM375.752 80.3438V91.0469H374.131V80.3438H375.752ZM374.961 76.3398C375.228 76.3398 375.456 76.4277 375.645 76.6035C375.84 76.7728 375.938 77.0397 375.938 77.4043C375.938 77.7624 375.84 78.0293 375.645 78.2051C375.456 78.3809 375.228 78.4688 374.961 78.4688C374.681 78.4688 374.447 78.3809 374.258 78.2051C374.076 78.0293 373.984 77.7624 373.984 77.4043C373.984 77.0397 374.076 76.7728 374.258 76.6035C374.447 76.4277 374.681 76.3398 374.961 76.3398ZM384.219 80.1484C385.553 80.1484 386.618 80.6074 387.412 81.5254C388.206 82.4434 388.604 83.8236 388.604 85.666C388.604 86.8835 388.421 87.9056 388.057 88.7324C387.692 89.5592 387.178 90.1842 386.514 90.6074C385.856 91.0306 385.078 91.2422 384.18 91.2422C383.613 91.2422 383.115 91.1673 382.686 91.0176C382.256 90.8678 381.888 90.666 381.582 90.4121C381.276 90.1582 381.022 89.8815 380.82 89.582H380.703C380.723 89.8359 380.745 90.1419 380.771 90.5C380.804 90.8581 380.82 91.1706 380.82 91.4375V95.832H379.189V80.3438H380.527L380.742 81.9258H380.82C381.029 81.6003 381.283 81.304 381.582 81.0371C381.882 80.7637 382.246 80.5488 382.676 80.3926C383.112 80.2298 383.626 80.1484 384.219 80.1484ZM383.936 81.5156C383.193 81.5156 382.594 81.6589 382.139 81.9453C381.689 82.2318 381.361 82.6615 381.152 83.2344C380.944 83.8008 380.833 84.5137 380.82 85.373V85.6855C380.82 86.5905 380.918 87.3555 381.113 87.9805C381.315 88.6055 381.644 89.0807 382.1 89.4062C382.562 89.7318 383.18 89.8945 383.955 89.8945C384.619 89.8945 385.173 89.7155 385.615 89.3574C386.058 88.9993 386.387 88.5013 386.602 87.8633C386.823 87.2188 386.934 86.4798 386.934 85.6465C386.934 84.3835 386.686 83.3809 386.191 82.6387C385.703 81.89 384.951 81.5156 383.936 81.5156ZM393.066 91.0469H391.436V75.8516H393.066V91.0469ZM400.615 80.1484C401.527 80.1484 402.308 80.3503 402.959 80.7539C403.61 81.1576 404.108 81.724 404.453 82.4531C404.798 83.1758 404.971 84.0221 404.971 84.9922V85.998H397.578C397.598 87.2546 397.91 88.2116 398.516 88.8691C399.121 89.5267 399.974 89.8555 401.074 89.8555C401.751 89.8555 402.35 89.7936 402.871 89.6699C403.392 89.5462 403.932 89.3639 404.492 89.123V90.5488C403.952 90.7897 403.415 90.9655 402.881 91.0762C402.354 91.1868 401.729 91.2422 401.006 91.2422C399.977 91.2422 399.079 91.0339 398.311 90.6172C397.549 90.194 396.956 89.5755 396.533 88.7617C396.11 87.9479 395.898 86.9518 395.898 85.7734C395.898 84.6211 396.09 83.625 396.475 82.7852C396.865 81.9388 397.412 81.2878 398.115 80.832C398.825 80.3763 399.658 80.1484 400.615 80.1484ZM400.596 81.4766C399.73 81.4766 399.04 81.7598 398.525 82.3262C398.011 82.8926 397.705 83.6836 397.607 84.6992H403.271C403.265 84.0612 403.164 83.5013 402.969 83.0195C402.78 82.5312 402.49 82.1536 402.1 81.8867C401.709 81.6133 401.208 81.4766 400.596 81.4766ZM417.949 80.1484C419.284 80.1484 420.348 80.6074 421.143 81.5254C421.937 82.4434 422.334 83.8236 422.334 85.666C422.334 86.8835 422.152 87.9056 421.787 88.7324C421.423 89.5592 420.908 90.1842 420.244 90.6074C419.587 91.0306 418.809 91.2422 417.91 91.2422C417.344 91.2422 416.846 91.1673 416.416 91.0176C415.986 90.8678 415.618 90.666 415.312 90.4121C415.007 90.1582 414.753 89.8815 414.551 89.582H414.434C414.453 89.8359 414.476 90.1419 414.502 90.5C414.535 90.8581 414.551 91.1706 414.551 91.4375V95.832H412.92V80.3438H414.258L414.473 81.9258H414.551C414.759 81.6003 415.013 81.304 415.312 81.0371C415.612 80.7637 415.977 80.5488 416.406 80.3926C416.842 80.2298 417.357 80.1484 417.949 80.1484ZM417.666 81.5156C416.924 81.5156 416.325 81.6589 415.869 81.9453C415.42 82.2318 415.091 82.6615 414.883 83.2344C414.674 83.8008 414.564 84.5137 414.551 85.373V85.6855C414.551 86.5905 414.648 87.3555 414.844 87.9805C415.046 88.6055 415.374 89.0807 415.83 89.4062C416.292 89.7318 416.911 89.8945 417.686 89.8945C418.35 89.8945 418.903 89.7155 419.346 89.3574C419.788 88.9993 420.117 88.5013 420.332 87.8633C420.553 87.2188 420.664 86.4798 420.664 85.6465C420.664 84.3835 420.417 83.3809 419.922 82.6387C419.434 81.89 418.682 81.5156 417.666 81.5156ZM426.797 91.0469H425.166V75.8516H426.797V91.0469ZM434.229 80.168C435.505 80.168 436.452 80.4544 437.07 81.0273C437.689 81.6003 437.998 82.515 437.998 83.7715V91.0469H436.816L436.504 89.4648H436.426C436.126 89.8555 435.814 90.1842 435.488 90.4512C435.163 90.7116 434.785 90.9102 434.355 91.0469C433.932 91.1771 433.411 91.2422 432.793 91.2422C432.142 91.2422 431.562 91.1283 431.055 90.9004C430.553 90.6725 430.156 90.3275 429.863 89.8652C429.577 89.403 429.434 88.8171 429.434 88.1074C429.434 87.0397 429.857 86.2194 430.703 85.6465C431.549 85.0736 432.839 84.7611 434.57 84.709L436.416 84.6309V83.9766C436.416 83.0521 436.217 82.4043 435.82 82.0332C435.423 81.6621 434.863 81.4766 434.141 81.4766C433.581 81.4766 433.047 81.5579 432.539 81.7207C432.031 81.8835 431.549 82.0755 431.094 82.2969L430.596 81.0664C431.077 80.819 431.631 80.6074 432.256 80.4316C432.881 80.2559 433.538 80.168 434.229 80.168ZM436.396 85.7734L434.766 85.8418C433.431 85.8939 432.49 86.112 431.943 86.4961C431.396 86.8802 431.123 87.4238 431.123 88.127C431.123 88.7389 431.309 89.1914 431.68 89.4844C432.051 89.7773 432.542 89.9238 433.154 89.9238C434.105 89.9238 434.883 89.6602 435.488 89.1328C436.094 88.6055 436.396 87.8145 436.396 86.7598V85.7734ZM444.795 89.9141C445.062 89.9141 445.335 89.8913 445.615 89.8457C445.895 89.8001 446.123 89.7448 446.299 89.6797V90.9395C446.11 91.0241 445.846 91.0957 445.508 91.1543C445.176 91.2129 444.85 91.2422 444.531 91.2422C443.965 91.2422 443.451 91.1445 442.988 90.9492C442.526 90.7474 442.155 90.4089 441.875 89.9336C441.602 89.4583 441.465 88.8008 441.465 87.9609V81.6133H439.941V80.8223L441.475 80.1875L442.119 77.8633H443.096V80.3438H446.23V81.6133H443.096V87.9121C443.096 88.5827 443.249 89.084 443.555 89.416C443.867 89.748 444.281 89.9141 444.795 89.9141ZM453.232 81.6133H450.566V91.0469H448.945V81.6133H447.051V80.832L448.945 80.2949V79.582C448.945 78.6836 449.079 77.9544 449.346 77.3945C449.613 76.8281 450 76.4115 450.508 76.1445C451.016 75.8776 451.634 75.7441 452.363 75.7441C452.773 75.7441 453.148 75.7799 453.486 75.8516C453.831 75.9232 454.134 76.0046 454.395 76.0957L453.975 77.375C453.753 77.3034 453.503 77.2383 453.223 77.1797C452.949 77.1146 452.669 77.082 452.383 77.082C451.764 77.082 451.305 77.2839 451.006 77.6875C450.713 78.0846 450.566 78.7096 450.566 79.5625V80.3438H453.232V81.6133ZM464.434 85.6758C464.434 86.5547 464.32 87.3392 464.092 88.0293C463.864 88.7194 463.535 89.3021 463.105 89.7773C462.676 90.2526 462.155 90.6172 461.543 90.8711C460.938 91.1185 460.251 91.2422 459.482 91.2422C458.766 91.2422 458.109 91.1185 457.51 90.8711C456.917 90.6172 456.403 90.2526 455.967 89.7773C455.537 89.3021 455.202 88.7194 454.961 88.0293C454.727 87.3392 454.609 86.5547 454.609 85.6758C454.609 84.5039 454.808 83.5078 455.205 82.6875C455.602 81.8607 456.169 81.2324 456.904 80.8027C457.646 80.3665 458.529 80.1484 459.551 80.1484C460.527 80.1484 461.38 80.3665 462.109 80.8027C462.845 81.2389 463.415 81.8704 463.818 82.6973C464.229 83.5176 464.434 84.5104 464.434 85.6758ZM456.289 85.6758C456.289 86.5352 456.403 87.2806 456.631 87.9121C456.859 88.5436 457.21 89.0319 457.686 89.377C458.161 89.722 458.773 89.8945 459.521 89.8945C460.264 89.8945 460.872 89.722 461.348 89.377C461.829 89.0319 462.184 88.5436 462.412 87.9121C462.64 87.2806 462.754 86.5352 462.754 85.6758C462.754 84.8229 462.64 84.0872 462.412 83.4688C462.184 82.8438 461.833 82.362 461.357 82.0234C460.882 81.6849 460.267 81.5156 459.512 81.5156C458.398 81.5156 457.581 81.8835 457.061 82.6191C456.546 83.3548 456.289 84.3737 456.289 85.6758ZM472.1 80.1484C472.314 80.1484 472.539 80.1615 472.773 80.1875C473.008 80.207 473.216 80.2363 473.398 80.2754L473.193 81.7793C473.018 81.7337 472.822 81.6979 472.607 81.6719C472.393 81.6458 472.191 81.6328 472.002 81.6328C471.572 81.6328 471.165 81.7207 470.781 81.8965C470.404 82.0658 470.072 82.3132 469.785 82.6387C469.499 82.9577 469.274 83.3451 469.111 83.8008C468.949 84.25 468.867 84.7513 468.867 85.3047V91.0469H467.236V80.3438H468.584L468.76 82.3164H468.828C469.049 81.9193 469.316 81.5579 469.629 81.2324C469.941 80.9004 470.303 80.6367 470.713 80.4414C471.13 80.2461 471.592 80.1484 472.1 80.1484ZM487.041 80.1484C488.219 80.1484 489.108 80.4577 489.707 81.0762C490.306 81.6882 490.605 82.6745 490.605 84.0352V91.0469H489.004V84.1133C489.004 83.2474 488.815 82.5996 488.438 82.1699C488.066 81.7337 487.513 81.5156 486.777 81.5156C485.742 81.5156 484.99 81.8151 484.521 82.4141C484.053 83.013 483.818 83.8952 483.818 85.0605V91.0469H482.207V84.1133C482.207 83.5339 482.122 83.0521 481.953 82.668C481.79 82.2839 481.543 81.9974 481.211 81.8086C480.885 81.6133 480.472 81.5156 479.971 81.5156C479.261 81.5156 478.691 81.6621 478.262 81.9551C477.832 82.248 477.52 82.6842 477.324 83.2637C477.135 83.8366 477.041 84.543 477.041 85.3828V91.0469H475.42V80.3438H476.729L476.973 81.8574H477.061C477.275 81.4863 477.546 81.1738 477.871 80.9199C478.197 80.666 478.561 80.474 478.965 80.3438C479.368 80.2135 479.798 80.1484 480.254 80.1484C481.068 80.1484 481.748 80.3014 482.295 80.6074C482.848 80.9069 483.249 81.3659 483.496 81.9844H483.584C483.936 81.3659 484.417 80.9069 485.029 80.6074C485.641 80.3014 486.312 80.1484 487.041 80.1484ZM500.859 88.1172C500.859 88.8008 500.687 89.377 500.342 89.8457C500.003 90.3079 499.515 90.6562 498.877 90.8906C498.245 91.125 497.49 91.2422 496.611 91.2422C495.863 91.2422 495.215 91.1836 494.668 91.0664C494.121 90.9492 493.643 90.7832 493.232 90.5684V89.0742C493.669 89.2891 494.189 89.4844 494.795 89.6602C495.4 89.8359 496.019 89.9238 496.65 89.9238C497.575 89.9238 498.245 89.7741 498.662 89.4746C499.079 89.1751 499.287 88.7682 499.287 88.2539C499.287 87.9609 499.202 87.7038 499.033 87.4824C498.87 87.2546 498.594 87.0365 498.203 86.8281C497.812 86.6133 497.272 86.3789 496.582 86.125C495.898 85.8646 495.306 85.6074 494.805 85.3535C494.31 85.0931 493.926 84.7773 493.652 84.4062C493.385 84.0352 493.252 83.5534 493.252 82.9609C493.252 82.056 493.617 81.3626 494.346 80.8809C495.081 80.3926 496.045 80.1484 497.236 80.1484C497.881 80.1484 498.483 80.2135 499.043 80.3438C499.609 80.4674 500.137 80.6367 500.625 80.8516L500.078 82.1504C499.635 81.9616 499.163 81.8021 498.662 81.6719C498.161 81.5417 497.65 81.4766 497.129 81.4766C496.38 81.4766 495.804 81.6003 495.4 81.8477C495.003 82.0951 494.805 82.4336 494.805 82.8633C494.805 83.1953 494.896 83.4688 495.078 83.6836C495.267 83.8984 495.566 84.1003 495.977 84.2891C496.387 84.4779 496.927 84.6992 497.598 84.9531C498.268 85.2005 498.848 85.4577 499.336 85.7246C499.824 85.985 500.199 86.304 500.459 86.6816C500.726 87.0527 500.859 87.5312 500.859 88.1172Z" fill="#606060"/>
<path d="M0 155.047C0 144.001 8.95431 135.047 20 135.047H75C86.0457 135.047 95 144.001 95 155.047V210.047C95 221.093 86.0457 230.047 75 230.047H20C8.9543 230.047 0 221.093 0 210.047V155.047Z" fill="#C4F5C9"/>
<g clip-path="url(#clip1_1_34)">
<path d="M56 184.047V169.904C56 168.085 55.1571 166.341 53.6569 165.055C52.1566 163.769 50.1217 163.047 48 163.047C45.8783 163.047 43.8434 163.769 42.3431 165.055C40.8428 166.341 40 168.085 40 169.904V184.047" stroke="#5EBA67" stroke-width="2.5" stroke-linecap="round" stroke-linejoin="round"/>
<path d="M58.5 179.047H37.5C35.0147 179.047 33 180.785 33 182.929V197.164C33 199.309 35.0147 201.047 37.5 201.047H58.5C60.9853 201.047 63 199.309 63 197.164V182.929C63 180.785 60.9853 179.047 58.5 179.047Z" stroke="#5EBA67" stroke-width="2.5" stroke-linecap="round" stroke-linejoin="round"/>
</g>
<path d="M130.015 167.349C130.015 168.618 129.697 169.702 129.062 170.601C128.438 171.489 127.559 172.168 126.426 172.637C125.293 173.105 123.96 173.34 122.427 173.34C121.616 173.34 120.85 173.301 120.127 173.223C119.404 173.145 118.74 173.032 118.135 172.886C117.529 172.739 116.997 172.559 116.538 172.344V169.956C117.271 170.259 118.164 170.542 119.219 170.806C120.273 171.06 121.377 171.187 122.529 171.187C123.604 171.187 124.512 171.045 125.254 170.762C125.996 170.469 126.558 170.054 126.938 169.517C127.329 168.97 127.524 168.315 127.524 167.554C127.524 166.821 127.363 166.211 127.041 165.723C126.719 165.225 126.182 164.775 125.43 164.375C124.688 163.965 123.672 163.53 122.383 163.071C121.475 162.749 120.674 162.397 119.98 162.017C119.287 161.626 118.706 161.187 118.237 160.698C117.769 160.21 117.412 159.644 117.168 158.999C116.934 158.354 116.816 157.617 116.816 156.787C116.816 155.645 117.104 154.668 117.681 153.857C118.267 153.037 119.072 152.412 120.098 151.982C121.133 151.543 122.319 151.323 123.657 151.323C124.8 151.323 125.854 151.431 126.821 151.646C127.798 151.86 128.691 152.148 129.502 152.51L128.726 154.648C127.954 154.326 127.134 154.058 126.265 153.843C125.405 153.628 124.517 153.521 123.599 153.521C122.681 153.521 121.904 153.657 121.27 153.931C120.645 154.194 120.166 154.57 119.834 155.059C119.502 155.547 119.336 156.128 119.336 156.802C119.336 157.554 119.492 158.179 119.805 158.677C120.127 159.175 120.635 159.619 121.328 160.01C122.031 160.391 122.959 160.791 124.111 161.211C125.371 161.67 126.44 162.158 127.319 162.676C128.198 163.184 128.867 163.809 129.326 164.551C129.785 165.283 130.015 166.216 130.015 167.349ZM140.21 156.699C141.577 156.699 142.749 157.002 143.726 157.607C144.702 158.213 145.449 159.062 145.967 160.156C146.484 161.24 146.743 162.51 146.743 163.965V165.474H135.654C135.684 167.358 136.152 168.794 137.061 169.78C137.969 170.767 139.248 171.26 140.898 171.26C141.914 171.26 142.812 171.167 143.594 170.981C144.375 170.796 145.186 170.522 146.025 170.161V172.3C145.215 172.661 144.409 172.925 143.608 173.091C142.817 173.257 141.88 173.34 140.796 173.34C139.253 173.34 137.905 173.027 136.753 172.402C135.61 171.768 134.722 170.84 134.087 169.619C133.452 168.398 133.135 166.904 133.135 165.137C133.135 163.408 133.423 161.914 133.999 160.654C134.585 159.385 135.405 158.408 136.46 157.725C137.524 157.041 138.774 156.699 140.21 156.699ZM140.181 158.691C138.882 158.691 137.847 159.116 137.075 159.966C136.304 160.815 135.845 162.002 135.698 163.525H144.194C144.185 162.568 144.033 161.729 143.74 161.006C143.457 160.273 143.022 159.707 142.437 159.307C141.851 158.896 141.099 158.691 140.181 158.691ZM157.305 173.34C155.859 173.34 154.585 173.042 153.481 172.446C152.378 171.851 151.519 170.942 150.903 169.722C150.288 168.501 149.98 166.963 149.98 165.107C149.98 163.164 150.303 161.577 150.947 160.347C151.602 159.106 152.5 158.188 153.643 157.593C154.785 156.997 156.084 156.699 157.539 156.699C158.34 156.699 159.111 156.782 159.854 156.948C160.605 157.104 161.221 157.305 161.699 157.549L160.967 159.585C160.479 159.39 159.912 159.214 159.268 159.058C158.633 158.901 158.037 158.823 157.48 158.823C156.367 158.823 155.439 159.062 154.697 159.541C153.965 160.02 153.413 160.723 153.042 161.65C152.681 162.578 152.5 163.721 152.5 165.078C152.5 166.377 152.676 167.485 153.027 168.403C153.389 169.321 153.921 170.024 154.624 170.513C155.337 170.991 156.226 171.23 157.29 171.23C158.14 171.23 158.906 171.143 159.59 170.967C160.273 170.781 160.894 170.566 161.45 170.322V172.49C160.913 172.764 160.312 172.974 159.648 173.12C158.994 173.267 158.213 173.34 157.305 173.34ZM178.516 156.992V173.047H176.523L176.172 170.791H176.04C175.708 171.348 175.278 171.816 174.751 172.197C174.224 172.578 173.628 172.861 172.964 173.047C172.31 173.242 171.611 173.34 170.869 173.34C169.6 173.34 168.535 173.135 167.676 172.725C166.816 172.314 166.167 171.68 165.728 170.82C165.298 169.961 165.083 168.857 165.083 167.51V156.992H167.544V167.334C167.544 168.672 167.847 169.673 168.452 170.337C169.058 170.991 169.98 171.318 171.221 171.318C172.412 171.318 173.359 171.094 174.062 170.645C174.775 170.195 175.288 169.536 175.601 168.667C175.913 167.788 176.069 166.714 176.069 165.444V156.992H178.516ZM190.952 156.699C191.274 156.699 191.611 156.719 191.963 156.758C192.314 156.787 192.627 156.831 192.9 156.89L192.593 159.146C192.329 159.077 192.036 159.023 191.714 158.984C191.392 158.945 191.089 158.926 190.806 158.926C190.161 158.926 189.551 159.058 188.975 159.321C188.408 159.575 187.91 159.946 187.48 160.435C187.051 160.913 186.714 161.494 186.47 162.178C186.226 162.852 186.104 163.604 186.104 164.434V173.047H183.657V156.992H185.679L185.942 159.951H186.045C186.377 159.355 186.777 158.813 187.246 158.325C187.715 157.827 188.257 157.432 188.872 157.139C189.497 156.846 190.19 156.699 190.952 156.699ZM202.114 156.699C203.481 156.699 204.653 157.002 205.63 157.607C206.606 158.213 207.354 159.062 207.871 160.156C208.389 161.24 208.647 162.51 208.647 163.965V165.474H197.559C197.588 167.358 198.057 168.794 198.965 169.78C199.873 170.767 201.152 171.26 202.803 171.26C203.818 171.26 204.717 171.167 205.498 170.981C206.279 170.796 207.09 170.522 207.93 170.161V172.3C207.119 172.661 206.313 172.925 205.513 173.091C204.722 173.257 203.784 173.34 202.7 173.34C201.157 173.34 199.81 173.027 198.657 172.402C197.515 171.768 196.626 170.84 195.991 169.619C195.356 168.398 195.039 166.904 195.039 165.137C195.039 163.408 195.327 161.914 195.903 160.654C196.489 159.385 197.31 158.408 198.364 157.725C199.429 157.041 200.679 156.699 202.114 156.699ZM202.085 158.691C200.786 158.691 199.751 159.116 198.979 159.966C198.208 160.815 197.749 162.002 197.603 163.525H206.099C206.089 162.568 205.938 161.729 205.645 161.006C205.361 160.273 204.927 159.707 204.341 159.307C203.755 158.896 203.003 158.691 202.085 158.691ZM218.491 173.34C216.46 173.34 214.849 172.646 213.657 171.26C212.476 169.873 211.885 167.812 211.885 165.078C211.885 162.314 212.49 160.229 213.701 158.823C214.912 157.407 216.523 156.699 218.535 156.699C219.385 156.699 220.127 156.812 220.762 157.036C221.396 157.261 221.943 157.563 222.402 157.944C222.861 158.315 223.247 158.74 223.56 159.219H223.735C223.696 158.916 223.657 158.501 223.618 157.974C223.579 157.446 223.56 157.017 223.56 156.685V150.254H225.991V173.047H224.028L223.662 170.762H223.56C223.257 171.24 222.871 171.675 222.402 172.065C221.943 172.456 221.392 172.769 220.747 173.003C220.112 173.228 219.36 173.34 218.491 173.34ZM218.872 171.318C220.591 171.318 221.807 170.83 222.52 169.854C223.232 168.877 223.589 167.427 223.589 165.503V165.063C223.589 163.022 223.247 161.455 222.563 160.361C221.89 159.268 220.659 158.721 218.872 158.721C217.378 158.721 216.26 159.297 215.518 160.449C214.775 161.592 214.404 163.154 214.404 165.137C214.404 167.109 214.771 168.633 215.503 169.707C216.245 170.781 217.368 171.318 218.872 171.318ZM251.392 167.349C251.392 168.618 251.074 169.702 250.439 170.601C249.814 171.489 248.936 172.168 247.803 172.637C246.67 173.105 245.337 173.34 243.804 173.34C242.993 173.34 242.227 173.301 241.504 173.223C240.781 173.145 240.117 173.032 239.512 172.886C238.906 172.739 238.374 172.559 237.915 172.344V169.956C238.647 170.259 239.541 170.542 240.596 170.806C241.65 171.06 242.754 171.187 243.906 171.187C244.98 171.187 245.889 171.045 246.631 170.762C247.373 170.469 247.935 170.054 248.315 169.517C248.706 168.97 248.901 168.315 248.901 167.554C248.901 166.821 248.74 166.211 248.418 165.723C248.096 165.225 247.559 164.775 246.807 164.375C246.064 163.965 245.049 163.53 243.76 163.071C242.852 162.749 242.051 162.397 241.357 162.017C240.664 161.626 240.083 161.187 239.614 160.698C239.146 160.21 238.789 159.644 238.545 158.999C238.311 158.354 238.193 157.617 238.193 156.787C238.193 155.645 238.481 154.668 239.058 153.857C239.644 153.037 240.449 152.412 241.475 151.982C242.51 151.543 243.696 151.323 245.034 151.323C246.177 151.323 247.231 151.431 248.198 151.646C249.175 151.86 250.068 152.148 250.879 152.51L250.103 154.648C249.331 154.326 248.511 154.058 247.642 153.843C246.782 153.628 245.894 153.521 244.976 153.521C244.058 153.521 243.281 153.657 242.646 153.931C242.021 154.194 241.543 154.57 241.211 155.059C240.879 155.547 240.713 156.128 240.713 156.802C240.713 157.554 240.869 158.179 241.182 158.677C241.504 159.175 242.012 159.619 242.705 160.01C243.408 160.391 244.336 160.791 245.488 161.211C246.748 161.67 247.817 162.158 248.696 162.676C249.575 163.184 250.244 163.809 250.703 164.551C251.162 165.283 251.392 166.216 251.392 167.349ZM260.591 171.348C260.991 171.348 261.401 171.313 261.821 171.245C262.241 171.177 262.583 171.094 262.847 170.996V172.886C262.563 173.013 262.168 173.12 261.66 173.208C261.162 173.296 260.674 173.34 260.195 173.34C259.346 173.34 258.574 173.193 257.881 172.9C257.188 172.598 256.631 172.09 256.211 171.377C255.801 170.664 255.596 169.678 255.596 168.418V158.896H253.311V157.71L255.61 156.758L256.577 153.271H258.042V156.992H262.744V158.896H258.042V168.345C258.042 169.351 258.271 170.103 258.73 170.601C259.199 171.099 259.819 171.348 260.591 171.348ZM273.394 156.699C273.716 156.699 274.053 156.719 274.404 156.758C274.756 156.787 275.068 156.831 275.342 156.89L275.034 159.146C274.771 159.077 274.478 159.023 274.155 158.984C273.833 158.945 273.53 158.926 273.247 158.926C272.603 158.926 271.992 159.058 271.416 159.321C270.85 159.575 270.352 159.946 269.922 160.435C269.492 160.913 269.155 161.494 268.911 162.178C268.667 162.852 268.545 163.604 268.545 164.434V173.047H266.099V156.992H268.12L268.384 159.951H268.486C268.818 159.355 269.219 158.813 269.688 158.325C270.156 157.827 270.698 157.432 271.313 157.139C271.938 156.846 272.632 156.699 273.394 156.699ZM291.631 156.992V173.047H289.639L289.287 170.791H289.155C288.823 171.348 288.394 171.816 287.866 172.197C287.339 172.578 286.743 172.861 286.079 173.047C285.425 173.242 284.727 173.34 283.984 173.34C282.715 173.34 281.65 173.135 280.791 172.725C279.932 172.314 279.282 171.68 278.843 170.82C278.413 169.961 278.198 168.857 278.198 167.51V156.992H280.659V167.334C280.659 168.672 280.962 169.673 281.567 170.337C282.173 170.991 283.096 171.318 284.336 171.318C285.527 171.318 286.475 171.094 287.178 170.645C287.891 170.195 288.403 169.536 288.716 168.667C289.028 167.788 289.185 166.714 289.185 165.444V156.992H291.631ZM303.203 173.34C301.758 173.34 300.483 173.042 299.38 172.446C298.276 171.851 297.417 170.942 296.802 169.722C296.187 168.501 295.879 166.963 295.879 165.107C295.879 163.164 296.201 161.577 296.846 160.347C297.5 159.106 298.398 158.188 299.541 157.593C300.684 156.997 301.982 156.699 303.438 156.699C304.238 156.699 305.01 156.782 305.752 156.948C306.504 157.104 307.119 157.305 307.598 157.549L306.865 159.585C306.377 159.39 305.811 159.214 305.166 159.058C304.531 158.901 303.936 158.823 303.379 158.823C302.266 158.823 301.338 159.062 300.596 159.541C299.863 160.02 299.312 160.723 298.94 161.65C298.579 162.578 298.398 163.721 298.398 165.078C298.398 166.377 298.574 167.485 298.926 168.403C299.287 169.321 299.819 170.024 300.522 170.513C301.235 170.991 302.124 171.23 303.188 171.23C304.038 171.23 304.805 171.143 305.488 170.967C306.172 170.781 306.792 170.566 307.349 170.322V172.49C306.812 172.764 306.211 172.974 305.547 173.12C304.893 173.267 304.111 173.34 303.203 173.34ZM316.343 171.348C316.743 171.348 317.153 171.313 317.573 171.245C317.993 171.177 318.335 171.094 318.599 170.996V172.886C318.315 173.013 317.92 173.12 317.412 173.208C316.914 173.296 316.426 173.34 315.947 173.34C315.098 173.34 314.326 173.193 313.633 172.9C312.939 172.598 312.383 172.09 311.963 171.377C311.553 170.664 311.348 169.678 311.348 168.418V158.896H309.062V157.71L311.362 156.758L312.329 153.271H313.794V156.992H318.496V158.896H313.794V168.345C313.794 169.351 314.023 170.103 314.482 170.601C314.951 171.099 315.571 171.348 316.343 171.348ZM335.107 156.992V173.047H333.115L332.764 170.791H332.632C332.3 171.348 331.87 171.816 331.343 172.197C330.815 172.578 330.22 172.861 329.556 173.047C328.901 173.242 328.203 173.34 327.461 173.34C326.191 173.34 325.127 173.135 324.268 172.725C323.408 172.314 322.759 171.68 322.319 170.82C321.89 169.961 321.675 168.857 321.675 167.51V156.992H324.136V167.334C324.136 168.672 324.438 169.673 325.044 170.337C325.649 170.991 326.572 171.318 327.812 171.318C329.004 171.318 329.951 171.094 330.654 170.645C331.367 170.195 331.88 169.536 332.192 168.667C332.505 167.788 332.661 166.714 332.661 165.444V156.992H335.107ZM347.544 156.699C347.866 156.699 348.203 156.719 348.555 156.758C348.906 156.787 349.219 156.831 349.492 156.89L349.185 159.146C348.921 159.077 348.628 159.023 348.306 158.984C347.983 158.945 347.681 158.926 347.397 158.926C346.753 158.926 346.143 159.058 345.566 159.321C345 159.575 344.502 159.946 344.072 160.435C343.643 160.913 343.306 161.494 343.062 162.178C342.817 162.852 342.695 163.604 342.695 164.434V173.047H340.249V156.992H342.271L342.534 159.951H342.637C342.969 159.355 343.369 158.813 343.838 158.325C344.307 157.827 344.849 157.432 345.464 157.139C346.089 156.846 346.782 156.699 347.544 156.699ZM358.706 156.699C360.073 156.699 361.245 157.002 362.222 157.607C363.198 158.213 363.945 159.062 364.463 160.156C364.98 161.24 365.239 162.51 365.239 163.965V165.474H354.15C354.18 167.358 354.648 168.794 355.557 169.78C356.465 170.767 357.744 171.26 359.395 171.26C360.41 171.26 361.309 171.167 362.09 170.981C362.871 170.796 363.682 170.522 364.521 170.161V172.3C363.711 172.661 362.905 172.925 362.104 173.091C361.313 173.257 360.376 173.34 359.292 173.34C357.749 173.34 356.401 173.027 355.249 172.402C354.106 171.768 353.218 170.84 352.583 169.619C351.948 168.398 351.631 166.904 351.631 165.137C351.631 163.408 351.919 161.914 352.495 160.654C353.081 159.385 353.901 158.408 354.956 157.725C356.021 157.041 357.271 156.699 358.706 156.699ZM358.677 158.691C357.378 158.691 356.343 159.116 355.571 159.966C354.8 160.815 354.341 162.002 354.194 163.525H362.69C362.681 162.568 362.529 161.729 362.236 161.006C361.953 160.273 361.519 159.707 360.933 159.307C360.347 158.896 359.595 158.691 358.677 158.691Z" fill="#1B2534"/>
<path d="M120.684 191.77C122.526 191.77 123.87 192.131 124.717 192.854C125.57 193.57 125.996 194.598 125.996 195.939C125.996 196.545 125.895 197.121 125.693 197.668C125.498 198.208 125.179 198.687 124.736 199.104C124.294 199.514 123.711 199.839 122.988 200.08C122.272 200.314 121.393 200.432 120.352 200.432H118.613V206.047H116.953V191.77H120.684ZM120.527 193.186H118.613V199.006H120.166C121.077 199.006 121.836 198.908 122.441 198.713C123.053 198.518 123.512 198.202 123.818 197.766C124.124 197.323 124.277 196.737 124.277 196.008C124.277 195.057 123.975 194.351 123.369 193.889C122.764 193.42 121.816 193.186 120.527 193.186ZM137.578 195.344V206.047H136.25L136.016 204.543H135.928C135.706 204.914 135.42 205.227 135.068 205.48C134.717 205.734 134.32 205.923 133.877 206.047C133.441 206.177 132.975 206.242 132.48 206.242C131.634 206.242 130.924 206.105 130.352 205.832C129.779 205.559 129.346 205.135 129.053 204.562C128.766 203.99 128.623 203.254 128.623 202.355V195.344H130.264V202.238C130.264 203.13 130.465 203.798 130.869 204.24C131.273 204.676 131.888 204.895 132.715 204.895C133.509 204.895 134.141 204.745 134.609 204.445C135.085 204.146 135.426 203.706 135.635 203.127C135.843 202.541 135.947 201.825 135.947 200.979V195.344H137.578ZM145.869 195.148C146.084 195.148 146.309 195.161 146.543 195.188C146.777 195.207 146.986 195.236 147.168 195.275L146.963 196.779C146.787 196.734 146.592 196.698 146.377 196.672C146.162 196.646 145.96 196.633 145.771 196.633C145.342 196.633 144.935 196.721 144.551 196.896C144.173 197.066 143.841 197.313 143.555 197.639C143.268 197.958 143.044 198.345 142.881 198.801C142.718 199.25 142.637 199.751 142.637 200.305V206.047H141.006V195.344H142.354L142.529 197.316H142.598C142.819 196.919 143.086 196.558 143.398 196.232C143.711 195.9 144.072 195.637 144.482 195.441C144.899 195.246 145.361 195.148 145.869 195.148ZM154.219 195.148C155.553 195.148 156.618 195.607 157.412 196.525C158.206 197.443 158.604 198.824 158.604 200.666C158.604 201.883 158.421 202.906 158.057 203.732C157.692 204.559 157.178 205.184 156.514 205.607C155.856 206.031 155.078 206.242 154.18 206.242C153.613 206.242 153.115 206.167 152.686 206.018C152.256 205.868 151.888 205.666 151.582 205.412C151.276 205.158 151.022 204.882 150.82 204.582H150.703C150.723 204.836 150.745 205.142 150.771 205.5C150.804 205.858 150.82 206.171 150.82 206.438V210.832H149.189V195.344H150.527L150.742 196.926H150.82C151.029 196.6 151.283 196.304 151.582 196.037C151.882 195.764 152.246 195.549 152.676 195.393C153.112 195.23 153.626 195.148 154.219 195.148ZM153.936 196.516C153.193 196.516 152.594 196.659 152.139 196.945C151.689 197.232 151.361 197.661 151.152 198.234C150.944 198.801 150.833 199.514 150.82 200.373V200.686C150.82 201.59 150.918 202.355 151.113 202.98C151.315 203.605 151.644 204.081 152.1 204.406C152.562 204.732 153.18 204.895 153.955 204.895C154.619 204.895 155.173 204.715 155.615 204.357C156.058 203.999 156.387 203.501 156.602 202.863C156.823 202.219 156.934 201.48 156.934 200.646C156.934 199.383 156.686 198.381 156.191 197.639C155.703 196.89 154.951 196.516 153.936 196.516ZM170.664 200.676C170.664 201.555 170.55 202.339 170.322 203.029C170.094 203.719 169.766 204.302 169.336 204.777C168.906 205.253 168.385 205.617 167.773 205.871C167.168 206.118 166.481 206.242 165.713 206.242C164.997 206.242 164.339 206.118 163.74 205.871C163.148 205.617 162.633 205.253 162.197 204.777C161.768 204.302 161.432 203.719 161.191 203.029C160.957 202.339 160.84 201.555 160.84 200.676C160.84 199.504 161.038 198.508 161.436 197.688C161.833 196.861 162.399 196.232 163.135 195.803C163.877 195.367 164.759 195.148 165.781 195.148C166.758 195.148 167.611 195.367 168.34 195.803C169.076 196.239 169.645 196.87 170.049 197.697C170.459 198.518 170.664 199.51 170.664 200.676ZM162.52 200.676C162.52 201.535 162.633 202.281 162.861 202.912C163.089 203.544 163.441 204.032 163.916 204.377C164.391 204.722 165.003 204.895 165.752 204.895C166.494 204.895 167.103 204.722 167.578 204.377C168.06 204.032 168.415 203.544 168.643 202.912C168.87 202.281 168.984 201.535 168.984 200.676C168.984 199.823 168.87 199.087 168.643 198.469C168.415 197.844 168.063 197.362 167.588 197.023C167.113 196.685 166.497 196.516 165.742 196.516C164.629 196.516 163.812 196.883 163.291 197.619C162.777 198.355 162.52 199.374 162.52 200.676ZM180.391 203.117C180.391 203.801 180.218 204.377 179.873 204.846C179.535 205.308 179.046 205.656 178.408 205.891C177.777 206.125 177.021 206.242 176.143 206.242C175.394 206.242 174.746 206.184 174.199 206.066C173.652 205.949 173.174 205.783 172.764 205.568V204.074C173.2 204.289 173.721 204.484 174.326 204.66C174.932 204.836 175.55 204.924 176.182 204.924C177.106 204.924 177.777 204.774 178.193 204.475C178.61 204.175 178.818 203.768 178.818 203.254C178.818 202.961 178.734 202.704 178.564 202.482C178.402 202.255 178.125 202.036 177.734 201.828C177.344 201.613 176.803 201.379 176.113 201.125C175.43 200.865 174.837 200.607 174.336 200.354C173.841 200.093 173.457 199.777 173.184 199.406C172.917 199.035 172.783 198.553 172.783 197.961C172.783 197.056 173.148 196.363 173.877 195.881C174.613 195.393 175.576 195.148 176.768 195.148C177.412 195.148 178.014 195.214 178.574 195.344C179.141 195.467 179.668 195.637 180.156 195.852L179.609 197.15C179.167 196.962 178.695 196.802 178.193 196.672C177.692 196.542 177.181 196.477 176.66 196.477C175.911 196.477 175.335 196.6 174.932 196.848C174.535 197.095 174.336 197.434 174.336 197.863C174.336 198.195 174.427 198.469 174.609 198.684C174.798 198.898 175.098 199.1 175.508 199.289C175.918 199.478 176.458 199.699 177.129 199.953C177.799 200.201 178.379 200.458 178.867 200.725C179.355 200.985 179.73 201.304 179.99 201.682C180.257 202.053 180.391 202.531 180.391 203.117ZM187.119 195.148C188.031 195.148 188.812 195.35 189.463 195.754C190.114 196.158 190.612 196.724 190.957 197.453C191.302 198.176 191.475 199.022 191.475 199.992V200.998H184.082C184.102 202.255 184.414 203.212 185.02 203.869C185.625 204.527 186.478 204.855 187.578 204.855C188.255 204.855 188.854 204.794 189.375 204.67C189.896 204.546 190.436 204.364 190.996 204.123V205.549C190.456 205.79 189.919 205.965 189.385 206.076C188.857 206.187 188.232 206.242 187.51 206.242C186.481 206.242 185.583 206.034 184.814 205.617C184.053 205.194 183.46 204.576 183.037 203.762C182.614 202.948 182.402 201.952 182.402 200.773C182.402 199.621 182.594 198.625 182.979 197.785C183.369 196.939 183.916 196.288 184.619 195.832C185.329 195.376 186.162 195.148 187.119 195.148ZM187.1 196.477C186.234 196.477 185.544 196.76 185.029 197.326C184.515 197.893 184.209 198.684 184.111 199.699H189.775C189.769 199.061 189.668 198.501 189.473 198.02C189.284 197.531 188.994 197.154 188.604 196.887C188.213 196.613 187.712 196.477 187.1 196.477ZM208.652 200.676C208.652 201.555 208.538 202.339 208.311 203.029C208.083 203.719 207.754 204.302 207.324 204.777C206.895 205.253 206.374 205.617 205.762 205.871C205.156 206.118 204.469 206.242 203.701 206.242C202.985 206.242 202.327 206.118 201.729 205.871C201.136 205.617 200.622 205.253 200.186 204.777C199.756 204.302 199.421 203.719 199.18 203.029C198.945 202.339 198.828 201.555 198.828 200.676C198.828 199.504 199.027 198.508 199.424 197.688C199.821 196.861 200.387 196.232 201.123 195.803C201.865 195.367 202.747 195.148 203.77 195.148C204.746 195.148 205.599 195.367 206.328 195.803C207.064 196.239 207.633 196.87 208.037 197.697C208.447 198.518 208.652 199.51 208.652 200.676ZM200.508 200.676C200.508 201.535 200.622 202.281 200.85 202.912C201.077 203.544 201.429 204.032 201.904 204.377C202.38 204.722 202.992 204.895 203.74 204.895C204.482 204.895 205.091 204.722 205.566 204.377C206.048 204.032 206.403 203.544 206.631 202.912C206.859 202.281 206.973 201.535 206.973 200.676C206.973 199.823 206.859 199.087 206.631 198.469C206.403 197.844 206.051 197.362 205.576 197.023C205.101 196.685 204.486 196.516 203.73 196.516C202.617 196.516 201.8 196.883 201.279 197.619C200.765 198.355 200.508 199.374 200.508 200.676ZM216.318 195.148C216.533 195.148 216.758 195.161 216.992 195.188C217.227 195.207 217.435 195.236 217.617 195.275L217.412 196.779C217.236 196.734 217.041 196.698 216.826 196.672C216.611 196.646 216.41 196.633 216.221 196.633C215.791 196.633 215.384 196.721 215 196.896C214.622 197.066 214.29 197.313 214.004 197.639C213.717 197.958 213.493 198.345 213.33 198.801C213.167 199.25 213.086 199.751 213.086 200.305V206.047H211.455V195.344H212.803L212.979 197.316H213.047C213.268 196.919 213.535 196.558 213.848 196.232C214.16 195.9 214.521 195.637 214.932 195.441C215.348 195.246 215.811 195.148 216.318 195.148ZM221.26 195.344V206.047H219.639V195.344H221.26ZM220.469 191.34C220.736 191.34 220.964 191.428 221.152 191.604C221.348 191.773 221.445 192.04 221.445 192.404C221.445 192.762 221.348 193.029 221.152 193.205C220.964 193.381 220.736 193.469 220.469 193.469C220.189 193.469 219.954 193.381 219.766 193.205C219.583 193.029 219.492 192.762 219.492 192.404C219.492 192.04 219.583 191.773 219.766 191.604C219.954 191.428 220.189 191.34 220.469 191.34ZM228.818 195.148C229.73 195.148 230.511 195.35 231.162 195.754C231.813 196.158 232.311 196.724 232.656 197.453C233.001 198.176 233.174 199.022 233.174 199.992V200.998H225.781C225.801 202.255 226.113 203.212 226.719 203.869C227.324 204.527 228.177 204.855 229.277 204.855C229.954 204.855 230.553 204.794 231.074 204.67C231.595 204.546 232.135 204.364 232.695 204.123V205.549C232.155 205.79 231.618 205.965 231.084 206.076C230.557 206.187 229.932 206.242 229.209 206.242C228.18 206.242 227.282 206.034 226.514 205.617C225.752 205.194 225.16 204.576 224.736 203.762C224.313 202.948 224.102 201.952 224.102 200.773C224.102 199.621 224.294 198.625 224.678 197.785C225.068 196.939 225.615 196.288 226.318 195.832C227.028 195.376 227.861 195.148 228.818 195.148ZM228.799 196.477C227.933 196.477 227.243 196.76 226.729 197.326C226.214 197.893 225.908 198.684 225.811 199.699H231.475C231.468 199.061 231.367 198.501 231.172 198.02C230.983 197.531 230.693 197.154 230.303 196.887C229.912 196.613 229.411 196.477 228.799 196.477ZM240.996 195.148C242.266 195.148 243.226 195.461 243.877 196.086C244.528 196.704 244.854 197.701 244.854 199.074V206.047H243.252V199.182C243.252 198.29 243.047 197.622 242.637 197.18C242.233 196.737 241.611 196.516 240.771 196.516C239.587 196.516 238.753 196.851 238.271 197.521C237.79 198.192 237.549 199.165 237.549 200.441V206.047H235.928V195.344H237.236L237.48 196.887H237.568C237.796 196.509 238.086 196.193 238.438 195.939C238.789 195.679 239.183 195.484 239.619 195.354C240.055 195.217 240.514 195.148 240.996 195.148ZM251.65 204.914C251.917 204.914 252.191 204.891 252.471 204.846C252.751 204.8 252.979 204.745 253.154 204.68V205.939C252.965 206.024 252.702 206.096 252.363 206.154C252.031 206.213 251.706 206.242 251.387 206.242C250.82 206.242 250.306 206.145 249.844 205.949C249.382 205.747 249.01 205.409 248.73 204.934C248.457 204.458 248.32 203.801 248.32 202.961V196.613H246.797V195.822L248.33 195.188L248.975 192.863H249.951V195.344H253.086V196.613H249.951V202.912C249.951 203.583 250.104 204.084 250.41 204.416C250.723 204.748 251.136 204.914 251.65 204.914ZM259.443 195.148C260.355 195.148 261.136 195.35 261.787 195.754C262.438 196.158 262.936 196.724 263.281 197.453C263.626 198.176 263.799 199.022 263.799 199.992V200.998H256.406C256.426 202.255 256.738 203.212 257.344 203.869C257.949 204.527 258.802 204.855 259.902 204.855C260.579 204.855 261.178 204.794 261.699 204.67C262.22 204.546 262.76 204.364 263.32 204.123V205.549C262.78 205.79 262.243 205.965 261.709 206.076C261.182 206.187 260.557 206.242 259.834 206.242C258.805 206.242 257.907 206.034 257.139 205.617C256.377 205.194 255.785 204.576 255.361 203.762C254.938 202.948 254.727 201.952 254.727 200.773C254.727 199.621 254.919 198.625 255.303 197.785C255.693 196.939 256.24 196.288 256.943 195.832C257.653 195.376 258.486 195.148 259.443 195.148ZM259.424 196.477C258.558 196.477 257.868 196.76 257.354 197.326C256.839 197.893 256.533 198.684 256.436 199.699H262.1C262.093 199.061 261.992 198.501 261.797 198.02C261.608 197.531 261.318 197.154 260.928 196.887C260.537 196.613 260.036 196.477 259.424 196.477ZM270.361 206.242C269.007 206.242 267.933 205.78 267.139 204.855C266.351 203.931 265.957 202.557 265.957 200.734C265.957 198.892 266.361 197.502 267.168 196.564C267.975 195.62 269.049 195.148 270.391 195.148C270.957 195.148 271.452 195.223 271.875 195.373C272.298 195.523 272.663 195.725 272.969 195.979C273.275 196.226 273.532 196.509 273.74 196.828H273.857C273.831 196.626 273.805 196.35 273.779 195.998C273.753 195.646 273.74 195.36 273.74 195.139V190.852H275.361V206.047H274.053L273.809 204.523H273.74C273.538 204.842 273.281 205.132 272.969 205.393C272.663 205.653 272.295 205.861 271.865 206.018C271.442 206.167 270.941 206.242 270.361 206.242ZM270.615 204.895C271.761 204.895 272.572 204.569 273.047 203.918C273.522 203.267 273.76 202.3 273.76 201.018V200.725C273.76 199.364 273.532 198.319 273.076 197.59C272.627 196.861 271.807 196.496 270.615 196.496C269.619 196.496 268.874 196.88 268.379 197.648C267.884 198.41 267.637 199.452 267.637 200.773C267.637 202.089 267.881 203.104 268.369 203.82C268.864 204.536 269.613 204.895 270.615 204.895ZM290.918 203.117C290.918 203.801 290.745 204.377 290.4 204.846C290.062 205.308 289.574 205.656 288.936 205.891C288.304 206.125 287.549 206.242 286.67 206.242C285.921 206.242 285.273 206.184 284.727 206.066C284.18 205.949 283.701 205.783 283.291 205.568V204.074C283.727 204.289 284.248 204.484 284.854 204.66C285.459 204.836 286.077 204.924 286.709 204.924C287.633 204.924 288.304 204.774 288.721 204.475C289.137 204.175 289.346 203.768 289.346 203.254C289.346 202.961 289.261 202.704 289.092 202.482C288.929 202.255 288.652 202.036 288.262 201.828C287.871 201.613 287.331 201.379 286.641 201.125C285.957 200.865 285.365 200.607 284.863 200.354C284.368 200.093 283.984 199.777 283.711 199.406C283.444 199.035 283.311 198.553 283.311 197.961C283.311 197.056 283.675 196.363 284.404 195.881C285.14 195.393 286.104 195.148 287.295 195.148C287.939 195.148 288.542 195.214 289.102 195.344C289.668 195.467 290.195 195.637 290.684 195.852L290.137 197.15C289.694 196.962 289.222 196.802 288.721 196.672C288.219 196.542 287.708 196.477 287.188 196.477C286.439 196.477 285.863 196.6 285.459 196.848C285.062 197.095 284.863 197.434 284.863 197.863C284.863 198.195 284.954 198.469 285.137 198.684C285.326 198.898 285.625 199.1 286.035 199.289C286.445 199.478 286.986 199.699 287.656 199.953C288.327 200.201 288.906 200.458 289.395 200.725C289.883 200.985 290.257 201.304 290.518 201.682C290.785 202.053 290.918 202.531 290.918 203.117ZM296.982 204.914C297.249 204.914 297.523 204.891 297.803 204.846C298.083 204.8 298.311 204.745 298.486 204.68V205.939C298.298 206.024 298.034 206.096 297.695 206.154C297.363 206.213 297.038 206.242 296.719 206.242C296.152 206.242 295.638 206.145 295.176 205.949C294.714 205.747 294.342 205.409 294.062 204.934C293.789 204.458 293.652 203.801 293.652 202.961V196.613H292.129V195.822L293.662 195.188L294.307 192.863H295.283V195.344H298.418V196.613H295.283V202.912C295.283 203.583 295.436 204.084 295.742 204.416C296.055 204.748 296.468 204.914 296.982 204.914ZM305.518 195.148C305.732 195.148 305.957 195.161 306.191 195.188C306.426 195.207 306.634 195.236 306.816 195.275L306.611 196.779C306.436 196.734 306.24 196.698 306.025 196.672C305.811 196.646 305.609 196.633 305.42 196.633C304.99 196.633 304.583 196.721 304.199 196.896C303.822 197.066 303.49 197.313 303.203 197.639C302.917 197.958 302.692 198.345 302.529 198.801C302.367 199.25 302.285 199.751 302.285 200.305V206.047H300.654V195.344H302.002L302.178 197.316H302.246C302.467 196.919 302.734 196.558 303.047 196.232C303.359 195.9 303.721 195.637 304.131 195.441C304.548 195.246 305.01 195.148 305.518 195.148ZM317.676 195.344V206.047H316.348L316.113 204.543H316.025C315.804 204.914 315.518 205.227 315.166 205.48C314.814 205.734 314.417 205.923 313.975 206.047C313.538 206.177 313.073 206.242 312.578 206.242C311.732 206.242 311.022 206.105 310.449 205.832C309.876 205.559 309.443 205.135 309.15 204.562C308.864 203.99 308.721 203.254 308.721 202.355V195.344H310.361V202.238C310.361 203.13 310.563 203.798 310.967 204.24C311.37 204.676 311.986 204.895 312.812 204.895C313.607 204.895 314.238 204.745 314.707 204.445C315.182 204.146 315.524 203.706 315.732 203.127C315.941 202.541 316.045 201.825 316.045 200.979V195.344H317.676ZM325.391 206.242C324.427 206.242 323.577 206.044 322.842 205.646C322.106 205.249 321.533 204.644 321.123 203.83C320.713 203.016 320.508 201.991 320.508 200.754C320.508 199.458 320.723 198.4 321.152 197.58C321.589 196.753 322.188 196.141 322.949 195.744C323.711 195.347 324.577 195.148 325.547 195.148C326.081 195.148 326.595 195.204 327.09 195.314C327.591 195.419 328.001 195.552 328.32 195.715L327.832 197.072C327.507 196.942 327.129 196.825 326.699 196.721C326.276 196.617 325.879 196.564 325.508 196.564C324.766 196.564 324.147 196.724 323.652 197.043C323.164 197.362 322.796 197.831 322.549 198.449C322.308 199.068 322.188 199.829 322.188 200.734C322.188 201.6 322.305 202.339 322.539 202.951C322.78 203.563 323.135 204.032 323.604 204.357C324.079 204.676 324.671 204.836 325.381 204.836C325.947 204.836 326.458 204.777 326.914 204.66C327.37 204.536 327.783 204.393 328.154 204.23V205.676C327.796 205.858 327.396 205.998 326.953 206.096C326.517 206.193 325.996 206.242 325.391 206.242ZM334.15 204.914C334.417 204.914 334.691 204.891 334.971 204.846C335.251 204.8 335.479 204.745 335.654 204.68V205.939C335.465 206.024 335.202 206.096 334.863 206.154C334.531 206.213 334.206 206.242 333.887 206.242C333.32 206.242 332.806 206.145 332.344 205.949C331.882 205.747 331.51 205.409 331.23 204.934C330.957 204.458 330.82 203.801 330.82 202.961V196.613H329.297V195.822L330.83 195.188L331.475 192.863H332.451V195.344H335.586V196.613H332.451V202.912C332.451 203.583 332.604 204.084 332.91 204.416C333.223 204.748 333.636 204.914 334.15 204.914ZM346.66 195.344V206.047H345.332L345.098 204.543H345.01C344.788 204.914 344.502 205.227 344.15 205.48C343.799 205.734 343.402 205.923 342.959 206.047C342.523 206.177 342.057 206.242 341.562 206.242C340.716 206.242 340.007 206.105 339.434 205.832C338.861 205.559 338.428 205.135 338.135 204.562C337.848 203.99 337.705 203.254 337.705 202.355V195.344H339.346V202.238C339.346 203.13 339.548 203.798 339.951 204.24C340.355 204.676 340.97 204.895 341.797 204.895C342.591 204.895 343.223 204.745 343.691 204.445C344.167 204.146 344.508 203.706 344.717 203.127C344.925 202.541 345.029 201.825 345.029 200.979V195.344H346.66ZM354.951 195.148C355.166 195.148 355.391 195.161 355.625 195.188C355.859 195.207 356.068 195.236 356.25 195.275L356.045 196.779C355.869 196.734 355.674 196.698 355.459 196.672C355.244 196.646 355.042 196.633 354.854 196.633C354.424 196.633 354.017 196.721 353.633 196.896C353.255 197.066 352.923 197.313 352.637 197.639C352.35 197.958 352.126 198.345 351.963 198.801C351.8 199.25 351.719 199.751 351.719 200.305V206.047H350.088V195.344H351.436L351.611 197.316H351.68C351.901 196.919 352.168 196.558 352.48 196.232C352.793 195.9 353.154 195.637 353.564 195.441C353.981 195.246 354.443 195.148 354.951 195.148ZM362.393 195.148C363.304 195.148 364.085 195.35 364.736 195.754C365.387 196.158 365.885 196.724 366.23 197.453C366.576 198.176 366.748 199.022 366.748 199.992V200.998H359.355C359.375 202.255 359.688 203.212 360.293 203.869C360.898 204.527 361.751 204.855 362.852 204.855C363.529 204.855 364.128 204.794 364.648 204.67C365.169 204.546 365.71 204.364 366.27 204.123V205.549C365.729 205.79 365.192 205.965 364.658 206.076C364.131 206.187 363.506 206.242 362.783 206.242C361.755 206.242 360.856 206.034 360.088 205.617C359.326 205.194 358.734 204.576 358.311 203.762C357.887 202.948 357.676 201.952 357.676 200.773C357.676 199.621 357.868 198.625 358.252 197.785C358.643 196.939 359.189 196.288 359.893 195.832C360.602 195.376 361.436 195.148 362.393 195.148ZM362.373 196.477C361.507 196.477 360.817 196.76 360.303 197.326C359.788 197.893 359.482 198.684 359.385 199.699H365.049C365.042 199.061 364.941 198.501 364.746 198.02C364.557 197.531 364.268 197.154 363.877 196.887C363.486 196.613 362.985 196.477 362.373 196.477ZM376.426 203.117C376.426 203.801 376.253 204.377 375.908 204.846C375.57 205.308 375.081 205.656 374.443 205.891C373.812 206.125 373.057 206.242 372.178 206.242C371.429 206.242 370.781 206.184 370.234 206.066C369.688 205.949 369.209 205.783 368.799 205.568V204.074C369.235 204.289 369.756 204.484 370.361 204.66C370.967 204.836 371.585 204.924 372.217 204.924C373.141 204.924 373.812 204.774 374.229 204.475C374.645 204.175 374.854 203.768 374.854 203.254C374.854 202.961 374.769 202.704 374.6 202.482C374.437 202.255 374.16 202.036 373.77 201.828C373.379 201.613 372.839 201.379 372.148 201.125C371.465 200.865 370.872 200.607 370.371 200.354C369.876 200.093 369.492 199.777 369.219 199.406C368.952 199.035 368.818 198.553 368.818 197.961C368.818 197.056 369.183 196.363 369.912 195.881C370.648 195.393 371.611 195.148 372.803 195.148C373.447 195.148 374.049 195.214 374.609 195.344C375.176 195.467 375.703 195.637 376.191 195.852L375.645 197.15C375.202 196.962 374.73 196.802 374.229 196.672C373.727 196.542 373.216 196.477 372.695 196.477C371.947 196.477 371.37 196.6 370.967 196.848C370.57 197.095 370.371 197.434 370.371 197.863C370.371 198.195 370.462 198.469 370.645 198.684C370.833 198.898 371.133 199.1 371.543 199.289C371.953 199.478 372.493 199.699 373.164 199.953C373.835 200.201 374.414 200.458 374.902 200.725C375.391 200.985 375.765 201.304 376.025 201.682C376.292 202.053 376.426 202.531 376.426 203.117ZM389.258 195.148C390.592 195.148 391.657 195.607 392.451 196.525C393.245 197.443 393.643 198.824 393.643 200.666C393.643 201.883 393.46 202.906 393.096 203.732C392.731 204.559 392.217 205.184 391.553 205.607C390.895 206.031 390.117 206.242 389.219 206.242C388.652 206.242 388.154 206.167 387.725 206.018C387.295 205.868 386.927 205.666 386.621 205.412C386.315 205.158 386.061 204.882 385.859 204.582H385.742C385.762 204.836 385.785 205.142 385.811 205.5C385.843 205.858 385.859 206.171 385.859 206.438V210.832H384.229V195.344H385.566L385.781 196.926H385.859C386.068 196.6 386.322 196.304 386.621 196.037C386.921 195.764 387.285 195.549 387.715 195.393C388.151 195.23 388.665 195.148 389.258 195.148ZM388.975 196.516C388.232 196.516 387.633 196.659 387.178 196.945C386.729 197.232 386.4 197.661 386.191 198.234C385.983 198.801 385.872 199.514 385.859 200.373V200.686C385.859 201.59 385.957 202.355 386.152 202.98C386.354 203.605 386.683 204.081 387.139 204.406C387.601 204.732 388.219 204.895 388.994 204.895C389.658 204.895 390.212 204.715 390.654 204.357C391.097 203.999 391.426 203.501 391.641 202.863C391.862 202.219 391.973 201.48 391.973 200.646C391.973 199.383 391.725 198.381 391.23 197.639C390.742 196.89 389.99 196.516 388.975 196.516ZM401.338 195.148C401.553 195.148 401.777 195.161 402.012 195.188C402.246 195.207 402.454 195.236 402.637 195.275L402.432 196.779C402.256 196.734 402.061 196.698 401.846 196.672C401.631 196.646 401.429 196.633 401.24 196.633C400.811 196.633 400.404 196.721 400.02 196.896C399.642 197.066 399.31 197.313 399.023 197.639C398.737 197.958 398.512 198.345 398.35 198.801C398.187 199.25 398.105 199.751 398.105 200.305V206.047H396.475V195.344H397.822L397.998 197.316H398.066C398.288 196.919 398.555 196.558 398.867 196.232C399.18 195.9 399.541 195.637 399.951 195.441C400.368 195.246 400.83 195.148 401.338 195.148ZM413.887 200.676C413.887 201.555 413.773 202.339 413.545 203.029C413.317 203.719 412.988 204.302 412.559 204.777C412.129 205.253 411.608 205.617 410.996 205.871C410.391 206.118 409.704 206.242 408.936 206.242C408.219 206.242 407.562 206.118 406.963 205.871C406.37 205.617 405.856 205.253 405.42 204.777C404.99 204.302 404.655 203.719 404.414 203.029C404.18 202.339 404.062 201.555 404.062 200.676C404.062 199.504 404.261 198.508 404.658 197.688C405.055 196.861 405.622 196.232 406.357 195.803C407.1 195.367 407.982 195.148 409.004 195.148C409.98 195.148 410.833 195.367 411.562 195.803C412.298 196.239 412.868 196.87 413.271 197.697C413.682 198.518 413.887 199.51 413.887 200.676ZM405.742 200.676C405.742 201.535 405.856 202.281 406.084 202.912C406.312 203.544 406.663 204.032 407.139 204.377C407.614 204.722 408.226 204.895 408.975 204.895C409.717 204.895 410.326 204.722 410.801 204.377C411.283 204.032 411.637 203.544 411.865 202.912C412.093 202.281 412.207 201.535 412.207 200.676C412.207 199.823 412.093 199.087 411.865 198.469C411.637 197.844 411.286 197.362 410.811 197.023C410.335 196.685 409.72 196.516 408.965 196.516C407.852 196.516 407.035 196.883 406.514 197.619C405.999 198.355 405.742 199.374 405.742 200.676ZM420.146 204.914C420.413 204.914 420.687 204.891 420.967 204.846C421.247 204.8 421.475 204.745 421.65 204.68V205.939C421.462 206.024 421.198 206.096 420.859 206.154C420.527 206.213 420.202 206.242 419.883 206.242C419.316 206.242 418.802 206.145 418.34 205.949C417.878 205.747 417.507 205.409 417.227 204.934C416.953 204.458 416.816 203.801 416.816 202.961V196.613H415.293V195.822L416.826 195.188L417.471 192.863H418.447V195.344H421.582V196.613H418.447V202.912C418.447 203.583 418.6 204.084 418.906 204.416C419.219 204.748 419.632 204.914 420.146 204.914ZM427.939 195.148C428.851 195.148 429.632 195.35 430.283 195.754C430.934 196.158 431.432 196.724 431.777 197.453C432.122 198.176 432.295 199.022 432.295 199.992V200.998H424.902C424.922 202.255 425.234 203.212 425.84 203.869C426.445 204.527 427.298 204.855 428.398 204.855C429.076 204.855 429.674 204.794 430.195 204.67C430.716 204.546 431.257 204.364 431.816 204.123V205.549C431.276 205.79 430.739 205.965 430.205 206.076C429.678 206.187 429.053 206.242 428.33 206.242C427.301 206.242 426.403 206.034 425.635 205.617C424.873 205.194 424.281 204.576 423.857 203.762C423.434 202.948 423.223 201.952 423.223 200.773C423.223 199.621 423.415 198.625 423.799 197.785C424.189 196.939 424.736 196.288 425.439 195.832C426.149 195.376 426.982 195.148 427.939 195.148ZM427.92 196.477C427.054 196.477 426.364 196.76 425.85 197.326C425.335 197.893 425.029 198.684 424.932 199.699H430.596C430.589 199.061 430.488 198.501 430.293 198.02C430.104 197.531 429.814 197.154 429.424 196.887C429.033 196.613 428.532 196.477 427.92 196.477ZM439.336 206.242C438.372 206.242 437.523 206.044 436.787 205.646C436.051 205.249 435.479 204.644 435.068 203.83C434.658 203.016 434.453 201.991 434.453 200.754C434.453 199.458 434.668 198.4 435.098 197.58C435.534 196.753 436.133 196.141 436.895 195.744C437.656 195.347 438.522 195.148 439.492 195.148C440.026 195.148 440.54 195.204 441.035 195.314C441.536 195.419 441.947 195.552 442.266 195.715L441.777 197.072C441.452 196.942 441.074 196.825 440.645 196.721C440.221 196.617 439.824 196.564 439.453 196.564C438.711 196.564 438.092 196.724 437.598 197.043C437.109 197.362 436.742 197.831 436.494 198.449C436.253 199.068 436.133 199.829 436.133 200.734C436.133 201.6 436.25 202.339 436.484 202.951C436.725 203.563 437.08 204.032 437.549 204.357C438.024 204.676 438.617 204.836 439.326 204.836C439.893 204.836 440.404 204.777 440.859 204.66C441.315 204.536 441.729 204.393 442.1 204.23V205.676C441.742 205.858 441.341 205.998 440.898 206.096C440.462 206.193 439.941 206.242 439.336 206.242ZM448.096 204.914C448.363 204.914 448.636 204.891 448.916 204.846C449.196 204.8 449.424 204.745 449.6 204.68V205.939C449.411 206.024 449.147 206.096 448.809 206.154C448.477 206.213 448.151 206.242 447.832 206.242C447.266 206.242 446.751 206.145 446.289 205.949C445.827 205.747 445.456 205.409 445.176 204.934C444.902 204.458 444.766 203.801 444.766 202.961V196.613H443.242V195.822L444.775 195.188L445.42 192.863H446.396V195.344H449.531V196.613H446.396V202.912C446.396 203.583 446.549 204.084 446.855 204.416C447.168 204.748 447.581 204.914 448.096 204.914ZM460.42 204.914C460.687 204.914 460.96 204.891 461.24 204.846C461.52 204.8 461.748 204.745 461.924 204.68V205.939C461.735 206.024 461.471 206.096 461.133 206.154C460.801 206.213 460.475 206.242 460.156 206.242C459.59 206.242 459.076 206.145 458.613 205.949C458.151 205.747 457.78 205.409 457.5 204.934C457.227 204.458 457.09 203.801 457.09 202.961V196.613H455.566V195.822L457.1 195.188L457.744 192.863H458.721V195.344H461.855V196.613H458.721V202.912C458.721 203.583 458.874 204.084 459.18 204.416C459.492 204.748 459.906 204.914 460.42 204.914ZM465.713 190.852V195.393C465.713 195.653 465.706 195.917 465.693 196.184C465.68 196.444 465.658 196.685 465.625 196.906H465.732C465.954 196.529 466.234 196.213 466.572 195.959C466.917 195.699 467.308 195.503 467.744 195.373C468.18 195.236 468.643 195.168 469.131 195.168C469.99 195.168 470.706 195.305 471.279 195.578C471.859 195.852 472.292 196.275 472.578 196.848C472.871 197.421 473.018 198.163 473.018 199.074V206.047H471.416V199.182C471.416 198.29 471.211 197.622 470.801 197.18C470.397 196.737 469.775 196.516 468.936 196.516C468.141 196.516 467.507 196.669 467.031 196.975C466.562 197.274 466.224 197.717 466.016 198.303C465.814 198.889 465.713 199.605 465.713 200.451V206.047H464.092V190.852H465.713ZM480.479 195.148C481.39 195.148 482.171 195.35 482.822 195.754C483.473 196.158 483.971 196.724 484.316 197.453C484.661 198.176 484.834 199.022 484.834 199.992V200.998H477.441C477.461 202.255 477.773 203.212 478.379 203.869C478.984 204.527 479.837 204.855 480.938 204.855C481.615 204.855 482.214 204.794 482.734 204.67C483.255 204.546 483.796 204.364 484.355 204.123V205.549C483.815 205.79 483.278 205.965 482.744 206.076C482.217 206.187 481.592 206.242 480.869 206.242C479.84 206.242 478.942 206.034 478.174 205.617C477.412 205.194 476.82 204.576 476.396 203.762C475.973 202.948 475.762 201.952 475.762 200.773C475.762 199.621 475.954 198.625 476.338 197.785C476.729 196.939 477.275 196.288 477.979 195.832C478.688 195.376 479.521 195.148 480.479 195.148ZM480.459 196.477C479.593 196.477 478.903 196.76 478.389 197.326C477.874 197.893 477.568 198.684 477.471 199.699H483.135C483.128 199.061 483.027 198.501 482.832 198.02C482.643 197.531 482.354 197.154 481.963 196.887C481.572 196.613 481.071 196.477 480.459 196.477ZM491.396 206.242C490.042 206.242 488.968 205.78 488.174 204.855C487.386 203.931 486.992 202.557 486.992 200.734C486.992 198.892 487.396 197.502 488.203 196.564C489.01 195.62 490.085 195.148 491.426 195.148C491.992 195.148 492.487 195.223 492.91 195.373C493.333 195.523 493.698 195.725 494.004 195.979C494.31 196.226 494.567 196.509 494.775 196.828H494.893C494.867 196.626 494.84 196.35 494.814 195.998C494.788 195.646 494.775 195.36 494.775 195.139V190.852H496.396V206.047H495.088L494.844 204.523H494.775C494.574 204.842 494.316 205.132 494.004 205.393C493.698 205.653 493.33 205.861 492.9 206.018C492.477 206.167 491.976 206.242 491.396 206.242ZM491.65 204.895C492.796 204.895 493.607 204.569 494.082 203.918C494.557 203.267 494.795 202.3 494.795 201.018V200.725C494.795 199.364 494.567 198.319 494.111 197.59C493.662 196.861 492.842 196.496 491.65 196.496C490.654 196.496 489.909 196.88 489.414 197.648C488.919 198.41 488.672 199.452 488.672 200.773C488.672 202.089 488.916 203.104 489.404 203.82C489.899 204.536 490.648 204.895 491.65 204.895ZM503.838 195.168C505.114 195.168 506.061 195.454 506.68 196.027C507.298 196.6 507.607 197.515 507.607 198.771V206.047H506.426L506.113 204.465H506.035C505.736 204.855 505.423 205.184 505.098 205.451C504.772 205.712 504.395 205.91 503.965 206.047C503.542 206.177 503.021 206.242 502.402 206.242C501.751 206.242 501.172 206.128 500.664 205.9C500.163 205.673 499.766 205.327 499.473 204.865C499.186 204.403 499.043 203.817 499.043 203.107C499.043 202.04 499.466 201.219 500.312 200.646C501.159 200.074 502.448 199.761 504.18 199.709L506.025 199.631V198.977C506.025 198.052 505.827 197.404 505.43 197.033C505.033 196.662 504.473 196.477 503.75 196.477C503.19 196.477 502.656 196.558 502.148 196.721C501.641 196.883 501.159 197.076 500.703 197.297L500.205 196.066C500.687 195.819 501.24 195.607 501.865 195.432C502.49 195.256 503.148 195.168 503.838 195.168ZM506.006 200.773L504.375 200.842C503.04 200.894 502.1 201.112 501.553 201.496C501.006 201.88 500.732 202.424 500.732 203.127C500.732 203.739 500.918 204.191 501.289 204.484C501.66 204.777 502.152 204.924 502.764 204.924C503.714 204.924 504.492 204.66 505.098 204.133C505.703 203.605 506.006 202.814 506.006 201.76V200.773ZM514.404 204.914C514.671 204.914 514.945 204.891 515.225 204.846C515.505 204.8 515.732 204.745 515.908 204.68V205.939C515.719 206.024 515.456 206.096 515.117 206.154C514.785 206.213 514.46 206.242 514.141 206.242C513.574 206.242 513.06 206.145 512.598 205.949C512.135 205.747 511.764 205.409 511.484 204.934C511.211 204.458 511.074 203.801 511.074 202.961V196.613H509.551V195.822L511.084 195.188L511.729 192.863H512.705V195.344H515.84V196.613H512.705V202.912C512.705 203.583 512.858 204.084 513.164 204.416C513.477 204.748 513.89 204.914 514.404 204.914ZM522.08 195.168C523.356 195.168 524.303 195.454 524.922 196.027C525.54 196.6 525.85 197.515 525.85 198.771V206.047H524.668L524.355 204.465H524.277C523.978 204.855 523.665 205.184 523.34 205.451C523.014 205.712 522.637 205.91 522.207 206.047C521.784 206.177 521.263 206.242 520.645 206.242C519.993 206.242 519.414 206.128 518.906 205.9C518.405 205.673 518.008 205.327 517.715 204.865C517.428 204.403 517.285 203.817 517.285 203.107C517.285 202.04 517.708 201.219 518.555 200.646C519.401 200.074 520.69 199.761 522.422 199.709L524.268 199.631V198.977C524.268 198.052 524.069 197.404 523.672 197.033C523.275 196.662 522.715 196.477 521.992 196.477C521.432 196.477 520.898 196.558 520.391 196.721C519.883 196.883 519.401 197.076 518.945 197.297L518.447 196.066C518.929 195.819 519.482 195.607 520.107 195.432C520.732 195.256 521.39 195.168 522.08 195.168ZM524.248 200.773L522.617 200.842C521.283 200.894 520.342 201.112 519.795 201.496C519.248 201.88 518.975 202.424 518.975 203.127C518.975 203.739 519.16 204.191 519.531 204.484C519.902 204.777 520.394 204.924 521.006 204.924C521.956 204.924 522.734 204.66 523.34 204.133C523.945 203.605 524.248 202.814 524.248 201.76V200.773Z" fill="#606060"/>
<defs>
<clipPath id="clip0_1_34">
<rect width="45" height="45" fill="white" transform="translate(25 45.0469)"/>
</clipPath>
<clipPath id="clip1_1_34">
<rect width="34" height="42" fill="white" transform="translate(31 161.047)"/>
</clipPath>
</defs>
</svg>
